<?xml version="1.0" encoding="utf-8"?>
<!-- Generator: Adobe Illustrator 28.3.0, SVG Export Plug-In . SVG Version: 6.00 Build 0)  -->
<svg version="1.1" id="Layer_1" xmlns="http://www.w3.org/2000/svg" xmlns:xlink="http://www.w3.org/1999/xlink" x="0px" y="0px"
	 viewBox="0 0 292.41 382.15" style="enable-background:new 0 0 292.41 382.15;" xml:space="preserve">
<style type="text/css">
	.st0{fill:#FFFFFF;}
	.st1{fill:#0452AD;}
	.st2{fill:#56A3FE;}
	.st3{fill:#3B3B3D;}
	.st4{fill:#FEFEFE;}
</style>
<g>
	<path class="st1" d="M50.04,373.16c-5.44-1.4-10.75-3.2-15.48-6.32c-7.45-4.91-7.55-12.16-0.15-17.17
		c7.49-5.07,16.23-6.84,24.87-8.67c13.67-2.9,27.54-4.4,41.47-5.38c1.83-0.13,3.66-0.38,6.25-0.65c-1.78-1.56-3.04-2.69-4.32-3.79
		c-26.64-22.85-50.33-48.32-69.16-78.08c-16.71-26.42-28.28-54.79-32.24-85.99C-8.76,88.05,41.43,22.25,110.17,4.58
		c80.85-20.79,163.45,31.41,179.43,113.51c6.33,32.52,1.6,63.99-10.54,94.49c-13.61,34.2-34.91,63.33-59.98,89.91
		c-10.02,10.62-20.63,20.62-31.74,30.1c-0.72,0.62-1.42,1.27-2.47,2.22c10.45,1.09,20.33,1.99,30.18,3.2
		c10.88,1.33,21.66,3.26,32.13,6.65c3.56,1.15,7.03,2.53,10.18,4.58c8.19,5.31,8.15,12.83-0.17,18.01
		c-6.33,3.94-13.46,5.78-20.64,7.38c-22.11,4.92-44.59,6.49-67.14,7.51c-1.25,0.06-10.16-0.08-10.88-0.08
		c-8.47-0.01-16.94-0.01-25.42-0.01C132.39,382.05,73.71,379.28,50.04,373.16z M9.07,144.7c0.3,6.81,0.32,11.52,0.74,16.25
		c1.99,21.97,8.3,42.67,17.72,62.5c12.79,26.94,30.35,50.59,50.71,72.18c19.46,20.64,41.1,38.81,64.49,54.9
		c2.6,1.79,4.35,1.76,6.9-0.06c26.34-18.84,50.68-39.9,72.06-64.3c19.68-22.44,36.45-46.76,47.87-74.47
		c11.35-27.53,16.64-55.99,12.13-85.78c-4.92-32.52-19.64-59.89-44.19-81.73c-30.42-27.06-66.17-38.35-106.6-34.03
		c-34.65,3.71-63.65,18.93-86.88,44.86C20.67,81.1,9.4,111.87,9.07,144.7z M146.33,373.49c27.56-0.17,55.05-1.31,82.22-6.39
		c7.95-1.48,15.84-3.26,23.15-6.95c2.57-1.3,2.79-2.47,0.06-3.89c-3.78-1.97-7.76-3.34-11.86-4.4c-21.09-5.49-42.69-7.08-64.34-8.35
		c-1.59-0.09-2.54,0.85-3.6,1.67c-6.9,5.33-13.98,10.41-21.12,15.42c-3.19,2.24-5.8,2.41-9.12,0.13
		c-7.29-5.01-14.63-9.93-21.58-15.4c-1.54-1.21-3.05-1.77-5.1-1.68c-15.82,0.76-31.57,2.14-47.17,4.86
		c-9.06,1.58-18.14,3.27-26.5,7.4c-1.07,0.53-2.69,0.92-2.73,2.24c-0.04,1.35,1.59,1.73,2.65,2.26c7.21,3.56,14.99,5.27,22.82,6.73
		C91.29,372.2,118.78,373.33,146.33,373.49z"/>
	<path class="st2" d="M9.07,144.7c0.34-32.83,11.6-63.6,34.96-89.67c23.24-25.93,52.23-41.15,86.88-44.86
		c40.43-4.32,76.18,6.97,106.6,34.03c24.55,21.83,39.27,49.2,44.19,81.73c4.5,29.78-0.78,58.25-12.13,85.78
		c-11.42,27.71-28.19,52.03-47.87,74.47c-21.39,24.4-45.72,45.46-72.06,64.3c-2.54,1.82-4.3,1.84-6.9,0.06
		c-23.39-16.08-45.03-34.25-64.49-54.9c-20.36-21.59-37.92-45.24-50.71-72.18c-9.42-19.83-15.74-40.53-17.72-62.5
		C9.38,156.22,9.36,151.51,9.07,144.7z M146.31,28.08C83.42,27.29,29.02,78.41,29,144.87c-0.02,65.86,53.71,116.65,116.61,116.89
		c63.72,0.25,117.11-51.72,117.32-116.57C263.13,79.54,208.92,27.42,146.31,28.08z"/>
</g>
<path class="st1" d="M145.54,28.08c62.61-0.66,116.83,51.47,116.62,117.11c-0.2,64.86-53.59,116.82-117.32,116.57
	c-62.9-0.24-116.63-51.03-116.61-116.89C28.26,78.41,82.66,27.29,145.54,28.08z M37.33,144.89
	c0.11,59.66,48.43,107.88,108.04,107.82c59.54-0.06,107.93-48.6,107.79-108.13C253.02,85.17,204.7,37,145.25,36.99
	C85.63,36.97,37.21,85.37,37.33,144.89z"/>
<g>
	<path class="st1" d="M182.58,86.01c-0.68-0.19-0.99,0.39-1.42,0.69c-4.76,3.45-9.5,6.92-14.25,10.38c-0.64,0.36-0.38,0.99-0.39,1.5
		c-0.02,3.28-0.01,6.56,0,9.84c-1.57-0.55-3.14-1.1-4.71-1.63c-0.7-0.24-1.02-0.6-1.01-1.44c0.05-4.02,0.04-8.04,0.01-12.06
		c-0.01-0.74,0.2-1.23,0.8-1.68c6.74-5.05,13.47-10.13,20.18-15.22c0.72-0.55,1.36-0.6,2.14-0.2c4.53,2.35,9.25,4.27,13.84,6.5
		c3.13,1.51,6.42,2.78,9.57,4.29c3.59,1.71,7.27,3.21,10.82,5.04c1.84,0.95,3.81,1.82,5.81,2.51c0.9,0.31,1.24,0.8,1.24,1.83
		c-0.03,33.96-0.03,67.92-0.04,101.87c0,0.39,0.28,0.9-0.27,1.19c-0.51-0.68-1.24-0.38-1.86-0.38c-12.62-0.02-25.24-0.01-37.86-0.02
		c-2.42,0-2.24,0.37-2.24-2.23c0-36.24,0-72.49-0.02-108.73C182.92,87.37,183.26,86.59,182.58,86.01z M214.31,123.24
		c-0.76,0.35-0.48,1.04-0.49,1.6c-0.03,2.54-0.03,5.08-0.01,7.61c0,0.52-0.23,1.12,0.35,1.52c0.46,0.2,0.9,0.43,1.38,0.59
		c1.37,0.45,2.74,0.88,4.11,1.32c0.45-1.46,0.18-2.95,0.19-4.43c0.01-2,0.78-4.45-0.29-5.88
		C218.54,124.24,216.11,123.98,214.31,123.24z M214.2,104.13c-0.39,0.16-0.39,0.5-0.39,0.84c0,3.01-0.01,6.02,0,9.02
		c0,0.33,0,0.68,0.38,0.85c1.82,0.65,3.64,1.31,5.67,2.04c0-3.46-0.01-6.8,0.01-10.13c0-0.51-0.33-0.7-0.7-0.81
		C217.47,105.43,215.98,104.39,214.2,104.13z M202.6,132.29c0.68,0.2,1.36,0.43,2.05,0.59c1.7,0.37,3.19,1.5,5.02,1.4
		c0.48-0.17,0.43-0.59,0.43-0.97c0.01-3.59,0.01-7.18,0-10.77c0-0.37,0.06-0.8-0.42-0.97c-2.33-1.11-4.63-2.32-7.23-2.74
		c-0.36,0.18-0.39,0.51-0.39,0.85c0,3.83,0.01,7.67,0,11.5C202.06,131.65,202.12,132.07,202.6,132.29z M202.49,98.09
		c-0.47,0.18-0.43,0.59-0.43,0.97c0,3.81,0,7.62,0.01,11.44c0,0.38-0.06,0.8,0.42,0.98c2.38,0.75,4.6,1.94,7.09,2.35
		c0.64-0.22,0.53-0.77,0.53-1.26c0.01-3.56,0.01-7.12,0-10.67c0-0.43,0.1-0.92-0.47-1.12C207.3,99.75,204.95,98.76,202.49,98.09z
		 M189.38,128.25c2.17,1.14,4.58,1.63,6.85,2.52c0.94,0.37,0.87-0.23,0.87-0.81c0-4.12,0-8.23,0-12.35c0-0.52-0.03-0.95-0.65-1.17
		c-2.35-0.83-4.57-1.99-7.01-2.58c-0.57,0.22-0.44,0.72-0.44,1.14c-0.01,4.08-0.01,8.16,0,12.24
		C188.99,127.62,188.91,128.04,189.38,128.25z M197.2,95.77c-2.43-1.44-5.09-2.29-7.79-3.04c-0.48,0.18-0.42,0.6-0.42,0.97
		c0,4.15,0,8.29,0.01,12.44c0,0.37-0.07,0.8,0.41,0.98c2.36,1.46,5.12,1.8,7.67,2.7c0.71-0.24,0.58-0.84,0.58-1.38
		c0-3.79,0.01-7.58-0.01-11.38C197.65,96.59,197.85,96.02,197.2,95.77z"/>
	<path class="st1" d="M114.96,131.24c0.27,0.65,0.17,1.02-0.62,0.75c-1.66-0.59-3.31-1.21-4.97-1.81c-0.55-0.2-0.53-0.62-0.53-1.08
		c0-5.53,0.01-11.06-0.02-16.59c0-0.64,0.23-1.03,0.75-1.35c6.8-4.16,13.61-8.28,20.36-12.52c1.46-0.92,2.54,0.04,3.69,0.37
		c2.14,0.61,4.12,1.73,6.21,2.46c1.76,0.61,3.62,1.05,5.33,1.8c4.03,1.76,8.19,3.26,12.31,4.72c5.39,1.91,10.7,4.03,16.12,5.84
		c0.12,0.04,0.19,0.24,0.28,0.36c-0.57,0.63-0.28,1.39-0.28,2.08c-0.02,27.2-0.03,54.4,0.02,81.61c0,1.49-0.39,1.86-1.86,1.86
		c-12.74-0.06-25.47-0.03-38.21-0.04c-2.55,0-2.22,0.23-2.22-2.24c-0.01-29.66,0-59.32-0.02-88.98c0-0.67,0.37-1.46-0.4-2
		c-0.26,0.06-0.56,0.06-0.78,0.19c-4.81,2.85-9.61,5.72-14.4,8.59c-0.28,0.17-0.5,0.43-0.74,0.65c-0.51,0.17-0.42,0.59-0.42,0.97
		c0,4.46,0,8.92,0.01,13.38C114.55,130.63,114.46,131.06,114.96,131.24z M162.85,146.03c1.83,0.95,3.86,1.21,5.83,1.67
		c0.37-0.13,0.5-0.41,0.5-0.77c0-2.35-0.01-4.69,0.01-7.04c0-0.46-0.19-0.72-0.58-0.9c-1.91-0.55-3.82-1.1-5.73-1.66
		c-0.83,0.85-0.4,1.91-0.36,2.84C162.62,142.12,162.03,144.12,162.85,146.03z M168.65,131.95c0.24-0.14,0.5-0.29,0.5-0.61
		c0.01-2.5,0.01-4.99,0.01-7.49c0-0.31-0.22-0.49-0.49-0.61c-1.92-0.63-3.78-1.49-5.83-1.69c-0.83,2.19-0.18,4.46-0.34,6.69
		c-0.05,0.66-0.35,1.45,0.34,2.02C164.72,131.08,166.75,131.31,168.65,131.95z M137.76,141.32c2.44,1.27,5.23,1.39,7.76,2.36
		c0.6-0.24,0.52-0.77,0.52-1.26c0-3.15,0-6.3,0-9.45c0-0.37,0.08-0.79-0.37-1.01c-2.6-0.92-5.12-2.1-7.92-2.34
		c-0.39,0.15-0.4,0.5-0.4,0.83c0,3.35-0.01,6.71,0,10.06C137.35,140.84,137.35,141.19,137.76,141.32z M137.75,112.18
		c-0.39,0.16-0.4,0.5-0.4,0.84c0,3.35,0,6.7,0,10.05c0,0.34,0.02,0.68,0.42,0.82c2.51,1.07,5.2,1.54,7.8,2.35
		c0.43-0.19,0.49-0.56,0.48-0.97c0-3.35,0-6.7-0.01-10.05c0-0.29-0.07-0.55-0.36-0.69C143.08,113.56,140.55,112.4,137.75,112.18z
		 M151.11,138.85c0,1.56,0.09,3.13-0.03,4.67c-0.09,1.06,0.65,1.47,1.27,1.54c1.62,0.16,3.1,0.75,4.64,1.16
		c0.85,0.22,1.19,0.16,1.17-0.85c-0.05-2.89-0.07-5.79,0.01-8.69c0.03-0.93-0.44-1.34-1.13-1.56c-1.63-0.53-3.29-0.95-4.93-1.45
		c-0.83-0.26-1.06,0-1.03,0.84C151.15,135.96,151.11,137.41,151.11,138.85z M151.11,116.37c0,3.64,0.02,7.04-0.02,10.43
		c-0.01,0.73,0.47,1.1,0.92,1.14c1.76,0.15,3.34,0.98,5.05,1.28c0.76,0.13,1.11,0.13,1.1-0.8c-0.05-2.95-0.03-5.91,0-8.86
		c0.01-0.65-0.18-1.04-0.82-1.23C155.35,117.71,153.37,117.08,151.11,116.37z"/>
	<path class="st1" d="M86.44,198.37c-0.03-0.61-0.07-1.22-0.07-1.83c0-20.53,0-41.07,0-61.6c0-1.84-0.01-1.84-1.73-1.05
		c-3.44,1.59-6.87,3.18-10.31,4.78c-0.67,0.51-0.35,1.24-0.35,1.86c-0.02,18.52-0.02,37.03-0.03,55.55c0,2.6,0.28,2.19-2.35,2.3
		c-1.35,0.06-2.76-0.44-4.05,0.35c-0.66-0.45-0.28-1.13-0.28-1.67c-0.03-20.37-0.02-40.75-0.05-61.12c0-0.96,0.25-1.48,1.13-1.92
		c5.61-2.75,11.19-5.56,16.77-8.37c1.01-0.51,2-0.55,3.05-0.21c7.19,2.29,14.41,4.47,21.55,6.9c4.09,1.39,8.29,2.44,12.34,3.94
		c0.5,0.19,1.37,0.09,0.97,1.09c-0.77,0.47-0.4,1.22-0.4,1.83c-0.02,19.05-0.04,38.1,0.02,57.15c0,1.6-0.41,2.06-2.03,2.05
		C109.23,198.33,97.84,198.37,86.44,198.37z M99.4,173.53c0.55-0.34,0.36-0.89,0.36-1.36c0.02-2.11,0.02-4.23,0-6.34
		c0-0.46,0.21-1.03-0.38-1.34c-2.28-0.66-4.56-1.32-6.99-2.03c0,3.07,0.01,5.96-0.01,8.85c0,0.53,0.16,0.81,0.69,0.93
		C95.17,172.7,97.2,173.55,99.4,173.53z M99.39,150.4c-2.22-0.89-4.55-1.34-7-2.06c0,3.15-0.01,6.15,0.01,9.15
		c0,0.21-0.09,0.58,0.32,0.62c2.26,0.23,4.35,1.33,6.66,1.33c0.63-0.37,0.37-0.99,0.38-1.51c0.03-2,0.03-4,0-6.01
		C99.74,151.41,100,150.79,99.39,150.4z M99.39,145.69c0.56-0.33,0.35-0.89,0.36-1.36c0.02-2.11,0.02-4.23,0-6.34
		c0-0.47,0.21-1.03-0.38-1.34c-2.27-0.67-4.55-1.34-6.99-2.05c0,3.11,0.01,6.01-0.01,8.9c0,0.55,0.21,0.79,0.74,0.89
		C95.21,144.81,97.21,145.7,99.39,145.69z"/>
	<path class="st1" d="M131.3,107.26c0.75,0.53,0.39,1.32,0.39,1.99c0.02,29.41,0.01,58.82,0.02,88.24c0,2.45-0.33,2.22,2.18,2.22
		c12.5,0.01,25-0.02,37.49,0.04c1.44,0.01,1.83-0.36,1.83-1.84c-0.05-26.97-0.04-53.95-0.02-80.92c0-0.69-0.28-1.44,0.28-2.06
		c0.03,1.16,0.08,2.32,0.08,3.48c0,26.64-0.01,53.29,0.04,79.93c0,1.46-0.33,1.8-1.77,1.79c-13.05-0.07-26.09-0.05-39.14-0.01
		c-1.14,0-1.44-0.28-1.44-1.45c0.03-30.19,0.03-60.38,0.03-90.57C131.27,107.81,131.29,107.53,131.3,107.26z"/>
	<path class="st1" d="M86.77,197.37c11.35-0.01,22.17,0.31,33.52,0.37c1.62,0.01,2.02-0.44,2.02-2.02
		c-0.06-18.78-0.04-37.56-0.02-56.34c0-0.6-0.37-1.34,0.4-1.8c0.03,0.6,0.07,1.21,0.07,1.81c0,19.06-0.01,38.12,0.04,57.17
		c0,1.3-0.33,1.61-1.62,1.61c-11.18-0.05-23.23-0.08-34.41-0.11C86.32,198.05,86.43,197.37,86.77,197.37z"/>
	<path class="st1" d="M182.58,87.07c0.67,0.58,0.33,1.35,0.33,2.02c0.02,35.8,0.02,71.61,0.02,107.41c0,2.56-0.18,2.2,2.2,2.2
		c12.42,0.01,24.77-0.39,37.19-0.37c0.53,0,1.05,0.02,1.5,0.44c0.08,0.07,0.15,0.15,0.22,0.25c-5,0.03-9.82,0.14-14.82,0.14
		c-8.41,0.01-16.81-0.01-25.22,0.03c-1.08,0.01-1.48-0.17-1.48-1.39c0.04-36.75,0.03-73.49,0.03-110.24
		C182.55,87.4,182.57,87.24,182.58,87.07z"/>
	<path class="st1" d="M68.74,198.34c1.03-0.78,2.34-0.22,3.42-0.28c2.11-0.12,1.89,0.29,1.89-2.27c0.01-18.2,0-36.41,0.02-54.61
		c0-0.61-0.25-1.33,0.28-1.83c0.02,19.2,0.03,38.4,0.08,57.61c0,1.19-0.19,1.64-1.23,1.54C71.78,198.37,70.17,198.36,68.74,198.34z"
		/>
	<path class="st1" d="M114.96,131.24c-0.5-0.18-0.4-0.61-0.4-0.98c0-4.46-0.01-8.92-0.01-13.38c0-0.38-0.09-0.81,0.42-0.97
		C114.96,121.01,114.96,126.12,114.96,131.24z"/>
	<path class="st1" d="M166.53,108.42c0-3.28-0.02-6.56,0-9.84c0-0.51-0.25-1.14,0.39-1.5c0,3.32,0.02,6.64-0.02,9.96
		C166.89,107.49,167.36,108.16,166.53,108.42z"/>
	<path class="st1" d="M189.4,92.73c0,4.8,0,9.59,0,14.39c-0.48-0.18-0.41-0.61-0.41-0.98c-0.01-4.15-0.01-8.29-0.01-12.44
		C188.99,93.33,188.92,92.91,189.4,92.73z"/>
	<path class="st1" d="M189.43,113.86c-0.02,4.8-0.04,9.59-0.05,14.39c-0.47-0.21-0.39-0.63-0.39-1.01c-0.01-4.08-0.01-8.16,0-12.24
		C188.99,114.58,188.87,114.08,189.43,113.86z"/>
	<path class="st1" d="M202.49,98.09c0,4.46,0,8.92,0,13.38c-0.48-0.18-0.42-0.6-0.42-0.98c-0.01-3.81-0.01-7.62-0.01-11.44
		C202.06,98.69,202.02,98.28,202.49,98.09z"/>
	<path class="st1" d="M202.45,118.83c0.05,4.49,0.1,8.97,0.15,13.46c-0.48-0.22-0.54-0.64-0.54-1.11c0.01-3.83,0-7.67,0-11.5
		C202.06,119.35,202.09,119.01,202.45,118.83z"/>
	<path class="st1" d="M214.2,104.13c-0.01,3.57-0.01,7.14-0.02,10.71c-0.37-0.17-0.38-0.52-0.38-0.85c0-3.01,0-6.02,0-9.02
		C213.81,104.63,213.82,104.29,214.2,104.13z"/>
	<path class="st1" d="M214.31,123.24c-0.05,3.58-0.1,7.16-0.15,10.74c-0.57-0.4-0.34-1-0.35-1.52c-0.02-2.54-0.02-5.08,0.01-7.61
		C213.83,124.28,213.55,123.59,214.31,123.24z"/>
	<path class="st1" d="M137.75,129.62c0,3.9,0.01,7.8,0.01,11.71c-0.41-0.13-0.42-0.48-0.42-0.82c0-3.35,0-6.71,0-10.06
		C137.35,130.11,137.36,129.77,137.75,129.62z"/>
	<path class="st1" d="M137.75,112.18c0.01,3.9,0.01,7.81,0.02,11.71c-0.4-0.14-0.42-0.48-0.42-0.82c0-3.35,0-6.7,0-10.05
		C137.35,112.68,137.36,112.33,137.75,112.18z"/>
	<path class="st1" d="M162.85,121.56c0,2.9,0.01,5.81,0.01,8.71c-0.69-0.57-0.39-1.36-0.34-2.02
		C162.67,126.02,162.02,123.75,162.85,121.56z"/>
	<path class="st1" d="M162.89,137.33c-0.01,2.9-0.02,5.8-0.04,8.7c-0.82-1.91-0.23-3.91-0.32-5.87
		C162.49,139.24,162.06,138.18,162.89,137.33z"/>
	<path class="st1" d="M99.39,145.14c-0.01-2.64-0.01-5.28-0.02-7.92c0.58,0.28,0.37,0.77,0.38,1.18c0.02,1.85,0.02,3.7,0,5.56
		C99.75,144.36,99.95,144.84,99.39,145.14z"/>
	<path class="st1" d="M99.21,159.26c0.01-2.87,0.01-5.74,0.02-8.61c0.84,0.37,0.49,0.96,0.5,1.45c0.04,1.91,0.04,3.82,0,5.72
		C99.72,158.31,100.09,158.9,99.21,159.26z"/>
	<path class="st1" d="M99.57,172.68c0-2.53-0.01-5.05-0.01-7.58c0.33,0.26,0.21,0.73,0.21,1.12c0.01,1.77,0.01,3.54,0,5.31
		C99.77,171.94,99.88,172.4,99.57,172.68z"/>
</g>
</svg>
