<?xml version="1.0" encoding="utf-8"?>
<!-- Generator: Adobe Illustrator 28.3.0, SVG Export Plug-In . SVG Version: 6.00 Build 0)  -->
<svg version="1.1" id="Layer_1" xmlns="http://www.w3.org/2000/svg" xmlns:xlink="http://www.w3.org/1999/xlink" x="0px" y="0px"
	 viewBox="0 0 292.41 382.15" style="enable-background:new 0 0 292.41 382.15;" xml:space="preserve">
<style type="text/css">
	.st0{fill:#FFFFFF;}
	.st1{fill:#0452AD;}
	.st2{fill:#56A3FE;}
	.st3{fill:#3B3B3D;}
	.st4{fill:#FEFEFE;}
</style>
<g>
	<path class="st1" d="M50.04,373.16c-5.44-1.4-10.75-3.2-15.48-6.32c-7.45-4.91-7.55-12.16-0.15-17.17
		c7.49-5.07,16.23-6.84,24.87-8.67c13.67-2.9,27.54-4.4,41.47-5.38c1.83-0.13,3.66-0.38,6.25-0.65c-1.78-1.56-3.04-2.69-4.32-3.79
		c-26.64-22.85-50.33-48.32-69.16-78.08c-16.71-26.42-28.28-54.79-32.24-85.99C-8.76,88.05,41.43,22.25,110.17,4.58
		c80.85-20.79,163.45,31.41,179.43,113.51c6.33,32.52,1.6,63.99-10.54,94.49c-13.61,34.2-34.91,63.33-59.98,89.91
		c-10.02,10.62-20.63,20.62-31.74,30.1c-0.72,0.62-1.42,1.27-2.47,2.22c10.45,1.09,20.33,1.99,30.18,3.2
		c10.88,1.33,21.66,3.26,32.13,6.65c3.56,1.15,7.03,2.53,10.18,4.58c8.19,5.31,8.15,12.83-0.17,18.01
		c-6.33,3.94-13.46,5.78-20.64,7.38c-22.11,4.92-44.59,6.49-67.14,7.51c-1.25,0.06-10.16-0.08-10.88-0.08
		c-8.47-0.01-16.94-0.01-25.42-0.01C132.39,382.05,73.71,379.28,50.04,373.16z M9.07,144.7c0.3,6.81,0.32,11.52,0.74,16.25
		c1.99,21.97,8.3,42.67,17.72,62.5c12.79,26.94,30.35,50.59,50.71,72.18c19.46,20.64,41.1,38.81,64.49,54.9
		c2.6,1.79,4.35,1.76,6.9-0.06c26.34-18.84,50.68-39.9,72.06-64.3c19.68-22.44,36.45-46.76,47.87-74.47
		c11.35-27.53,16.64-55.99,12.13-85.78c-4.92-32.52-19.64-59.89-44.19-81.73c-30.42-27.06-66.17-38.35-106.6-34.03
		c-34.65,3.71-63.65,18.93-86.88,44.86C20.67,81.1,9.4,111.87,9.07,144.7z M146.33,373.49c27.56-0.17,55.05-1.31,82.22-6.39
		c7.95-1.48,15.84-3.26,23.15-6.95c2.57-1.3,2.79-2.47,0.06-3.89c-3.78-1.97-7.76-3.34-11.86-4.4c-21.09-5.49-42.69-7.08-64.34-8.35
		c-1.59-0.09-2.54,0.85-3.6,1.67c-6.9,5.33-13.98,10.41-21.12,15.42c-3.19,2.24-5.8,2.41-9.12,0.13
		c-7.29-5.01-14.63-9.93-21.58-15.4c-1.54-1.21-3.05-1.77-5.1-1.68c-15.82,0.76-31.57,2.14-47.17,4.86
		c-9.06,1.58-18.14,3.27-26.5,7.4c-1.07,0.53-2.69,0.92-2.73,2.24c-0.04,1.35,1.59,1.73,2.65,2.26c7.21,3.56,14.99,5.27,22.82,6.73
		C91.29,372.2,118.78,373.33,146.33,373.49z"/>
	<path class="st2" d="M9.07,144.7c0.34-32.83,11.6-63.6,34.96-89.67c23.24-25.93,52.23-41.15,86.88-44.86
		c40.43-4.32,76.18,6.97,106.6,34.03c24.55,21.83,39.27,49.2,44.19,81.73c4.5,29.78-0.78,58.25-12.13,85.78
		c-11.42,27.71-28.19,52.03-47.87,74.47c-21.39,24.4-45.72,45.46-72.06,64.3c-2.54,1.82-4.3,1.84-6.9,0.06
		c-23.39-16.08-45.03-34.25-64.49-54.9c-20.36-21.59-37.92-45.24-50.71-72.18c-9.42-19.83-15.74-40.53-17.72-62.5
		C9.38,156.22,9.36,151.51,9.07,144.7z M146.31,28.08C83.42,27.29,29.02,78.41,29,144.87c-0.02,65.86,53.71,116.65,116.61,116.89
		c63.72,0.25,117.11-51.72,117.32-116.57C263.13,79.54,208.92,27.42,146.31,28.08z"/>
</g>
<path class="st1" d="M146.54,28.08c62.61-0.66,116.83,51.47,116.62,117.11c-0.2,64.86-53.59,116.82-117.32,116.57
	c-62.9-0.24-116.63-51.03-116.61-116.89C29.26,78.41,83.66,27.29,146.54,28.08z M38.33,144.89
	c0.11,59.66,48.43,107.88,108.04,107.82c59.54-0.06,107.93-48.6,107.79-108.13C254.02,85.17,205.7,37,146.25,36.99
	C86.63,36.97,38.21,85.37,38.33,144.89z"/>
<g>
	<path class="st1" d="M83.93,134.76c-3.41,2.2-5.58,0.98-7.53-1.67c-2.26-3.09-4.77-5.99-7.09-9.04c-2.12-2.79-1.93-4.59,0.78-6.74
		c24.78-19.64,49.6-39.24,74.36-58.9c2.37-1.88,4.39-1.87,6.72,0.06c24.26,20.11,48.57,40.17,72.84,60.27
		c3.16,2.61,3.28,4.3,0.72,7.46c-2.41,2.97-4.91,5.88-7.29,8.88c-1.9,2.4-4.03,3.33-7.1,1.15c-0.91,7.85-1.8,15.4-2.66,22.94
		c-1.62,14.24-3.19,28.48-4.86,42.71c-0.57,4.86-1.39,5.47-6.29,5.47c-32.95,0-65.9,0-98.84,0c-4.68,0-5.52-0.63-6.07-5.33
		c-2.33-19.99-4.57-39.99-6.84-59.98C84.53,139.75,84.25,137.47,83.93,134.76z M167.81,199.39c8.43-0.08,16.86-0.06,25.29-0.01
		c1.54,0.01,2.03-0.59,2.19-2.09c1-9.11,2.14-18.21,3.18-27.31c1.41-12.36,2.68-24.74,4.25-37.08c0.26-2.05-0.1-3.18-1.62-4.43
		c-17.13-14.12-34.23-28.27-51.26-42.51c-1.83-1.53-3-1.28-4.69,0.07c-17.27,13.77-34.57,27.5-51.94,41.14
		c-1.67,1.31-1.96,2.61-1.73,4.48c1.07,8.55,2.1,17.11,3.1,25.67c1.53,13.11,3.11,26.22,4.47,39.36c0.25,2.44,1.25,2.75,3.3,2.73
		c7.66-0.09,15.33-0.17,22.99,0.03C128.23,199.51,165.83,199.41,167.81,199.39z M213.03,127.96c1.12-1.36,2.34-2.59,3.24-4.02
		c1-1.57-0.79-1.99-1.54-2.61c-21.64-17.96-43.33-35.86-64.96-53.83c-1.55-1.29-2.51-1.26-4.1,0c-22,17.5-44.03,34.98-66.18,52.3
		c-2.35,1.84-1.29,2.69-0.14,4.28c1.28,1.76,2.05,2.45,4.21,0.73c19.73-15.79,39.59-31.43,59.4-47.12c4.43-3.51,4.93-3.51,9.23,0.04
		c19.48,16.11,38.97,32.21,58.45,48.31C211.33,126.61,212.01,127.14,213.03,127.96z"/>
	<g>
		<path class="st1" d="M178.48,150.45c0.41,3.65,0.25,7.29-0.03,10.93c-0.81-1.58,0-3.31-0.56-4.92c-0.09,1.87-0.09,3.74-0.09,5.61
			c0,0.4,0.27,0.56,0.61,0.64c-0.2,2.02-0.32,4.05-0.63,6.06c-0.26,1.72-1.1,3.09-2.98,3.5c-0.07-0.45-0.35-0.63-0.79-0.63
			c-1.26,0.01-2.53,0-3.79,0c1.16,0.64,2.49-0.13,3.6,0.68c-1.77,0.09-3.53,0.19-5.3,0.28c-0.08-0.35-0.24-0.61-0.64-0.61
			c-1.98,0-3.96,0-5.94,0c1.17,0.58,2.48-0.1,3.61,0.64c-1.1,0.07-2.2,0.11-3.29,0.21c-1.63,0.15-2.56,1.16-2.64,2.81
			c-0.11,2.09-0.21,4.17-0.32,6.26c-0.79-0.74-0.06-1.8-0.68-2.93c0,2.8,0,5.27,0,7.75c0,0.45,0.18,0.73,0.63,0.8
			c-0.19,2.08-0.97,3.11-2.59,3.19c-1.72,0.09-2.35-1.08-2.66-2.53c0.55-0.08,0.72-0.48,0.62-0.94c-0.29-1.33,0.71-2.86-0.62-4.03
			c0.07-4.41,0.33-8.8,0.99-13.16c0.45-2.97,1.49-3.97,4.41-4.44c2.28-0.37,4.57-0.7,6.86-1.03c1.87-0.28,2.47-0.95,2.44-2.85
			c-0.03-1.38-0.14-2.75-0.16-4.13c-0.01-1.22-0.39-1.38-1.5-0.86c-4.24,1.98-8.41,1.7-12.45-0.65c-1.1-0.64-1.68-1.55-1.63-2.83
			c0.06-1.6,0.99-2.47,2.62-2.53c1.02-0.04,1.93,0.28,2.86,0.65c3.06,1.21,5.71,0.48,7.81-2.07c1.05-1.28,2.22-2.44,3.58-3.41
			c4.22-3.01,7.35-1.84,8.61,3.23c-0.46,0.07-0.63,0.35-0.63,0.8c0.01,1.59,0,3.18,0,4.78
			C178.44,153.32,177.65,151.79,178.48,150.45z"/>
		<path class="st1" d="M157.63,162.45c-0.17,0.23-0.41,0.28-0.68,0.23c-0.16-0.79-0.79-0.62-1.31-0.62c-5.1-0.01-10.2-0.01-15.3,0
			c-0.53,0-1.16-0.14-1.25,0.68c-0.03,6.72-0.07,13.44-0.1,20.17c-0.01,2.76,0,2.75,2.74,2.88c3.14,0.15,6.27,0.38,9.3,1.28
			c0.62,0.18,1.44,0.31,1.49,1.08c0.06,0.92-0.86,1.1-1.5,1.27c-3.91,1.07-7.92,1.23-11.94,1.38c-0.94-0.92-6-0.92-6.96,0
			c-1.54-0.1-3.08-0.2-4.63-0.3c1-0.77,2.22-0.01,3.25-0.58c-1.29,0.33-2.76-0.83-3.92,0.56c-2.36-0.16-4.71-0.41-6.97-1.15
			c-0.59-0.19-1.26-0.41-1.28-1.1c-0.02-0.72,0.71-0.89,1.28-1.08c2.75-0.9,5.61-1.08,8.46-1.31c1.04-0.08,2.1,0.09,3.1-0.31
			c0.84-0.06,0.7-0.7,0.7-1.23c0-6.66,0.01-13.32,0-19.98c0-0.52,0.16-1.16-0.66-1.27c-0.47-0.59-1.13-0.29-1.69-0.29
			c-5.01-0.03-10.01-0.01-15.02-0.02c-1.97,0-2.86-0.69-2.84-2.16c0.02-1.44,0.93-2.12,2.91-2.13c4.46-0.01,8.91-0.04,13.37,0.02
			c1.16,0.02,1.85-0.18,1.96-1.5c0.1-1.14,1.13-2.57,0.55-3.28c-0.66-0.79-2.26-0.21-3.45-0.26c-1.04-0.05-2.09-0.06-3.13,0
			c-1.22,0.08-1.89-0.38-1.91-1.64c0.45,0,0.91,0,1.36,0c0.39,0.3,0.84,0.22,1.27,0.22c5.67,0,11.35-0.01,17.02-0.01
			c0.58,0.03,0.85,0.56,1.28,0.82c-0.1,0.87-0.79,0.59-1.27,0.6c-1.92,0.03-3.85,0.07-5.77-0.01c-1.06-0.05-1.12,0.34-0.96,1.22
			c0.68,3.82,0.66,3.82,4.49,3.82c5.55,0,11.09-0.02,16.64,0c2.34,0.01,3.2,1.37,2.22,3.4
			C157.95,161.68,157.66,161.87,157.63,162.45z M138.37,163.16c-0.05-0.03-0.1-0.05-0.16-0.08c0,7.23,0,14.45,0,21.68
			c0.05,0,0.1,0,0.16,0C138.37,177.56,138.37,170.36,138.37,163.16z M141.33,152.72c0-0.06,0.01-0.11,0.01-0.17
			c-5.81,0-11.62,0-17.42,0c0,0.06,0,0.11,0,0.17C129.73,152.72,135.53,152.72,141.33,152.72z"/>
		<path class="st1" d="M166.03,175.55c0.38-0.85,1.14-0.83,1.73-0.93c1.68-0.29,3.38-0.52,5.07-0.68c4.74-0.43,7.82-3.72,7.84-8.5
			c0.02-5.13,0-10.25,0.03-15.38c0-0.49-0.36-1.31,0.32-1.42c0.72-0.12,1.21,0.61,1.47,1.26c0.15,0.39,0.13,0.87,0.13,1.3
			c0.01,4.85-0.01,9.7,0.01,14.55c0.02,4.3-2.02,7.34-5.79,9.22c-0.87,0.43-1.22,0.85-1.19,1.83c0.07,2.59,0.06,5.18,0.01,7.77
			c-0.02,0.87,0.2,1.27,1.14,1.35c0.86,0.07,1.72,0.36,2.55,0.62c0.34,0.11,0.75,0.4,0.65,0.83c-0.07,0.26-0.41,0.52-0.68,0.65
			c-1.33,0.62-2.77,0.69-4.2,0.76c-1.88,0.1-3.75-0.03-5.55-0.62c-0.44-0.14-1.05-0.31-1-0.92c0.04-0.46,0.51-0.68,0.95-0.82
			c0.31-0.1,0.62-0.22,0.94-0.29c2.4-0.52,2.4-0.52,2.4-2.9c0-1.93-0.12-3.87,0.04-5.78c0.14-1.66-0.53-1.89-1.94-1.72
			C169.34,175.94,167.7,175.95,166.03,175.55z"/>
		<path class="st1" d="M178.66,135.76c-0.08,1.48-0.41,3-1.4,4.34c-2.09,2.82-5.85,2.82-7.72-0.13c-1.76-2.77-1.85-5.7-0.11-8.54
			c1.97-3.22,5.85-3.28,7.99-0.17C178.32,132.58,178.64,134.07,178.66,135.76z"/>
		<path class="st1" d="M119.7,143.64c-0.47-1.4-0.95-2.79-1.39-4.2c-0.39-1.25,0.02-1.82,1.41-1.81c6.05,0.04,12.11,0.05,18.16,0
			c1.89-0.01,1.56,1.55,2.04,2.55c-0.71-0.78-0.93-0.02-1.26,0.4c-0.2-1.31-0.96-1.59-2.24-1.57c-5.01,0.09-10.02,0.02-15.03,0.06
			c-0.52,0-1.25-0.39-1.55,0.47c-1.8,0.4-0.21,1.33-0.3,1.99c-0.03,0.21,0.11,0.62,0.46,0.42c0.18-0.1,0.21-0.45,0.31-0.69
			c0.28,0.86,0.56,1.72,0.84,2.58C120.61,144.25,120.43,141.92,119.7,143.64z M138.03,138.49c0-0.06,0.01-0.11,0.01-0.17
			c-5.92,0-11.84,0-17.76,0c0,0.06,0,0.11,0,0.17C126.2,138.49,132.11,138.49,138.03,138.49z"/>
		<path class="st1" d="M138.67,140.58c0.33-0.42,0.55-1.18,1.26-0.4c1.42,3.85,2.39,7.82,3.54,11.75c0.1,0.33,0.32,0.78-0.32,0.88
			c-0.43-0.27-0.7-0.79-1.28-0.82C140.79,148.18,139.73,144.38,138.67,140.58z"/>
		<path class="st1" d="M131.47,163.04c0.82,0.11,0.66,0.75,0.66,1.27c0.01,6.66,0.01,13.32,0,19.98c0,0.53,0.14,1.16-0.7,1.23
			C131.44,178.02,131.46,170.53,131.47,163.04z"/>
		<path class="st1" d="M119.7,143.64c0.73-1.72,0.91,0.61,1.46,0.2c0.8,2.65,1.6,5.29,2.4,7.94c-0.45,0-0.91,0-1.36,0
			c-1-2.35-1.52-4.86-2.26-7.29C120.28,144.09,120.42,143.75,119.7,143.64L119.7,143.64z"/>
		<path class="st1" d="M139.1,162.74c0.09-0.82,0.72-0.68,1.25-0.68c5.1-0.01,10.2-0.01,15.3,0c0.52,0,1.15-0.18,1.31,0.62
			C151,162.7,145.05,162.72,139.1,162.74z"/>
		<path class="st1" d="M142.14,157.39c-0.3-0.89,0.32-0.88,0.89-0.89c2.91-0.01,5.81-0.02,8.72,0c0.77,0.01,1.43,0.21,0.61,1.13
			c-0.67-1.04-1.71-0.54-2.55-0.51C147.25,157.2,144.67,156.73,142.14,157.39z"/>
		<path class="st1" d="M142.14,157.39c2.53-0.66,5.11-0.19,7.67-0.27c0.84-0.02,1.88-0.52,2.55,0.51c-3.24,0.31-6.49,0.08-9.74,0.11
			C142.46,157.75,142.3,157.51,142.14,157.39z"/>
		<path class="st1" d="M132.13,190.8c0.95-0.92,6.02-0.92,6.96,0C136.77,190.8,134.45,190.8,132.13,190.8z"/>
		<path class="st1" d="M159.24,187.52c-0.45-0.08-0.63-0.35-0.63-0.8c0.01-2.47,0-4.95,0-7.75c0.62,1.13-0.11,2.18,0.68,2.93
			c0,0.32-0.01,0.65-0.01,0.97c-0.36,0.22-0.37,0.45,0,0.67C159.27,184.88,159.25,186.2,159.24,187.52z"/>
		<path class="st1" d="M165.55,172.63c-1.12-0.74-2.44-0.06-3.61-0.64c1.98,0,3.96,0,5.94,0c0.4,0,0.56,0.26,0.64,0.61
			C167.54,172.7,166.55,172.8,165.55,172.63z"/>
		<path class="st1" d="M154,183.21c1.33,1.16,0.34,2.7,0.62,4.03c0.1,0.46-0.07,0.86-0.62,0.94
			C153.83,186.53,153.89,184.87,154,183.21z"/>
		<path class="st1" d="M178.43,162.71c-0.35-0.08-0.61-0.23-0.61-0.64c0-1.87,0-3.74,0.09-5.61c0.56,1.61-0.26,3.34,0.56,4.92
			C178.45,161.82,178.44,162.27,178.43,162.71z"/>
		<path class="st1" d="M178.48,150.45c-0.84,1.34-0.05,2.87-0.68,4.26c0-1.59,0-3.18,0-4.78c0-0.45,0.17-0.73,0.63-0.8
			C178.44,149.57,178.46,150.01,178.48,150.45z"/>
		<path class="st1" d="M173.83,172.32c-1.11-0.81-2.44-0.04-3.6-0.68c1.26,0,2.53,0.01,3.79,0c0.45,0,0.72,0.18,0.79,0.63
			C174.49,172.29,174.16,172.3,173.83,172.32z"/>
		<path class="st1" d="M126.84,190.47c1.17-1.39,2.63-0.23,3.92-0.56c-1.03,0.58-2.26-0.19-3.25,0.58
			C127.28,190.49,127.06,190.48,126.84,190.47z"/>
		<path class="st1" d="M157.63,162.45c0.03-0.58,0.32-0.77,0.86-0.6C158.32,162.21,158.07,162.46,157.63,162.45z"/>
		<path class="st1" d="M119.71,143.65c0.71,0.1,0.57,0.45,0.24,0.85C119.86,144.21,119.79,143.93,119.71,143.65z"/>
		<path class="st1" d="M159.28,183.55c-0.37-0.23-0.36-0.45,0-0.67C159.28,183.1,159.28,183.33,159.28,183.55z"/>
		<path class="st1" d="M138.37,163.16c0,7.2,0,14.4,0,21.6c-0.05,0-0.1,0-0.16,0c0-7.23,0-14.45,0-21.68
			C138.27,163.11,138.32,163.13,138.37,163.16z"/>
		<path class="st1" d="M141.33,152.72c-5.8,0-11.61,0-17.41,0c0-0.06,0-0.11,0-0.17c5.81,0,11.62,0,17.42,0
			C141.34,152.61,141.34,152.66,141.33,152.72z"/>
		<path class="st1" d="M138.03,138.49c-5.92,0-11.83,0-17.75,0c0-0.06,0-0.11,0-0.17c5.92,0,11.84,0,17.76,0
			C138.03,138.38,138.03,138.44,138.03,138.49z"/>
		<path class="st1" d="M119.85,139.54c0.25,0.55,0.51,1.1,0.48,1.73c-0.1,0.24-0.13,0.59-0.31,0.69c-0.36,0.2-0.49-0.21-0.46-0.42
			C119.63,140.87,118.05,139.94,119.85,139.54z"/>
	</g>
</g>
</svg>
