<?xml version="1.0" encoding="utf-8"?>
<!-- Generator: Adobe Illustrator 28.3.0, SVG Export Plug-In . SVG Version: 6.00 Build 0)  -->
<svg version="1.1" id="Layer_1" xmlns="http://www.w3.org/2000/svg" xmlns:xlink="http://www.w3.org/1999/xlink" x="0px" y="0px"
	 viewBox="0 0 292.41 382.15" style="enable-background:new 0 0 292.41 382.15;" xml:space="preserve">
<style type="text/css">
	.st0{fill:#FFFFFF;}
	.st1{fill:#0452AD;}
	.st2{fill:#56A3FE;}
	.st3{fill:#3B3B3D;}
	.st4{fill:#FEFEFE;}
</style>
<g>
	<path class="st1" d="M50.04,373.16c-5.44-1.4-10.75-3.2-15.48-6.32c-7.45-4.91-7.55-12.16-0.15-17.17
		c7.49-5.07,16.23-6.84,24.87-8.67c13.67-2.9,27.54-4.4,41.47-5.38c1.83-0.13,3.66-0.38,6.25-0.65c-1.78-1.56-3.04-2.69-4.32-3.79
		c-26.64-22.85-50.33-48.32-69.16-78.08c-16.71-26.42-28.28-54.79-32.24-85.99C-8.76,88.05,41.43,22.25,110.17,4.58
		c80.85-20.79,163.45,31.41,179.43,113.51c6.33,32.52,1.6,63.99-10.54,94.49c-13.61,34.2-34.91,63.33-59.98,89.91
		c-10.02,10.62-20.63,20.62-31.74,30.1c-0.72,0.62-1.42,1.27-2.47,2.22c10.45,1.09,20.33,1.99,30.18,3.2
		c10.88,1.33,21.66,3.26,32.13,6.65c3.56,1.15,7.03,2.53,10.18,4.58c8.19,5.31,8.15,12.83-0.17,18.01
		c-6.33,3.94-13.46,5.78-20.64,7.38c-22.11,4.92-44.59,6.49-67.14,7.51c-1.25,0.06-10.16-0.08-10.88-0.08
		c-8.47-0.01-16.94-0.01-25.42-0.01C132.39,382.05,73.71,379.28,50.04,373.16z M9.07,144.7c0.3,6.81,0.32,11.52,0.74,16.25
		c1.99,21.97,8.3,42.67,17.72,62.5c12.79,26.94,30.35,50.59,50.71,72.18c19.46,20.64,41.1,38.81,64.49,54.9
		c2.6,1.79,4.35,1.76,6.9-0.06c26.34-18.84,50.68-39.9,72.06-64.3c19.68-22.44,36.45-46.76,47.87-74.47
		c11.35-27.53,16.64-55.99,12.13-85.78c-4.92-32.52-19.64-59.89-44.19-81.73c-30.42-27.06-66.17-38.35-106.6-34.03
		c-34.65,3.71-63.65,18.93-86.88,44.86C20.67,81.1,9.4,111.87,9.07,144.7z M146.33,373.49c27.56-0.17,55.05-1.31,82.22-6.39
		c7.95-1.48,15.84-3.26,23.15-6.95c2.57-1.3,2.79-2.47,0.06-3.89c-3.78-1.97-7.76-3.34-11.86-4.4c-21.09-5.49-42.69-7.08-64.34-8.35
		c-1.59-0.09-2.54,0.85-3.6,1.67c-6.9,5.33-13.98,10.41-21.12,15.42c-3.19,2.24-5.8,2.41-9.12,0.13
		c-7.29-5.01-14.63-9.93-21.58-15.4c-1.54-1.21-3.05-1.77-5.1-1.68c-15.82,0.76-31.57,2.14-47.17,4.86
		c-9.06,1.58-18.14,3.27-26.5,7.4c-1.07,0.53-2.69,0.92-2.73,2.24c-0.04,1.35,1.59,1.73,2.65,2.26c7.21,3.56,14.99,5.27,22.82,6.73
		C91.29,372.2,118.78,373.33,146.33,373.49z"/>
	<path class="st2" d="M9.07,144.7c0.34-32.83,11.6-63.6,34.96-89.67c23.24-25.93,52.23-41.15,86.88-44.86
		c40.43-4.32,76.18,6.97,106.6,34.03c24.55,21.83,39.27,49.2,44.19,81.73c4.5,29.78-0.78,58.25-12.13,85.78
		c-11.42,27.71-28.19,52.03-47.87,74.47c-21.39,24.4-45.72,45.46-72.06,64.3c-2.54,1.82-4.3,1.84-6.9,0.06
		c-23.39-16.08-45.03-34.25-64.49-54.9c-20.36-21.59-37.92-45.24-50.71-72.18c-9.42-19.83-15.74-40.53-17.72-62.5
		C9.38,156.22,9.36,151.51,9.07,144.7z M146.31,28.08C83.42,27.29,29.02,78.41,29,144.87c-0.02,65.86,53.71,116.65,116.61,116.89
		c63.72,0.25,117.11-51.72,117.32-116.57C263.13,79.54,208.92,27.42,146.31,28.08z"/>
</g>
<path class="st1" d="M146.54,28.08c62.61-0.66,116.83,51.47,116.62,117.11c-0.2,64.86-53.59,116.82-117.32,116.57
	c-62.9-0.24-116.63-51.03-116.61-116.89C29.26,78.41,83.66,27.29,146.54,28.08z M38.33,144.89
	c0.11,59.66,48.43,107.88,108.04,107.82c59.54-0.06,107.93-48.6,107.79-108.13C254.02,85.17,205.7,37,146.25,36.99
	C86.63,36.97,38.21,85.37,38.33,144.89z"/>
<g>
	<path class="st2" d="M85.43,193.38c-0.01-22.21-0.02-44.42-0.03-66.63c1.33-1.73,2.09-3.75,2.96-5.72c0.2,0.55,0.42,1.09,0.61,1.64
		c2.36,6.93,10.53,9.83,16.77,6.01c2.93-1.79,4.38-4.55,5.39-7.65c0.45,0.23,0.38,0.69,0.51,1.08c1.56,4.75,4.83,7.67,9.76,8.22
		c4.85,0.54,8.69-1.49,11.18-5.77c0.64-1.1,1.05-2.34,1.57-3.52c0.2,0.55,0.42,1.09,0.61,1.64c2.36,6.93,10.53,9.83,16.77,6.01
		c2.93-1.79,4.38-4.55,5.39-7.65c0.45,0.23,0.38,0.69,0.51,1.08c1.56,4.75,4.83,7.67,9.76,8.22c4.85,0.54,8.69-1.49,11.18-5.77
		c0.64-1.1,1.05-2.34,1.57-3.52c0.2,0.55,0.42,1.09,0.61,1.64c2.36,6.93,10.53,9.83,16.77,6.01c2.93-1.79,4.38-4.55,5.39-7.65
		c0.87,1.97,1.62,3.99,2.96,5.71c-0.01,22.21-0.02,44.42-0.03,66.64c-0.42,0.02-0.83,0.06-1.25,0.06c-23.92,0-47.84,0-71.75,0
		c-0.47,0-0.95-0.05-1.42-0.07c0-16.5-0.03-33.01,0.02-49.51c0-1.49-0.24-2.02-1.91-2c-8.28,0.1-16.56,0.1-24.84,0
		c-1.67-0.02-1.91,0.52-1.91,2c0.05,16.5,0.03,33,0.02,49.51C96.89,193.37,91.16,193.37,85.43,193.38z M168.43,141.94
		c-6.14,0-12.28,0.04-18.41-0.03c-1.27-0.01-1.59,0.35-1.58,1.59c0.05,10.37,0.05,20.74,0,31.1c-0.01,1.27,0.36,1.58,1.6,1.58
		c12.27-0.05,24.55-0.05,36.82,0c1.26,0,1.59-0.35,1.58-1.59c-0.05-10.37-0.05-20.74,0-31.1c0.01-1.27-0.35-1.59-1.6-1.58
		C180.71,141.98,174.57,141.94,168.43,141.94z"/>
	<path class="st1" d="M168.53,193.91c-11.96,0-23.92,0-35.88,0c-0.34,0-0.68-0.02-1-0.04c-0.15-0.01-0.3-0.02-0.45-0.03l-0.45-0.02
		l0-10.93c-0.01-12.79-0.01-26.02,0.03-39.03c0-0.74-0.07-1.11-0.24-1.28c-0.17-0.17-0.56-0.25-1.18-0.24
		c-8.25,0.1-16.61,0.1-24.85,0c-0.63-0.01-1.01,0.07-1.18,0.24c-0.17,0.17-0.24,0.54-0.24,1.28c0.04,13.01,0.03,26.24,0.03,39.03
		l0,10.96l-18.12,0.02l-0.02-0.48l-0.03-66.79l0.1-0.13c1.1-1.43,1.82-3.12,2.52-4.75c0.12-0.29,0.25-0.58,0.37-0.87l0.47-1.08
		l0.61,1.64c0.14,0.37,0.28,0.75,0.41,1.13c1.07,3.15,3.48,5.6,6.61,6.73c3.15,1.14,6.6,0.78,9.46-0.97
		c3.08-1.88,4.39-4.94,5.18-7.39l0.17-0.53l0.5,0.25c0.54,0.27,0.63,0.77,0.69,1.09c0.02,0.09,0.03,0.18,0.06,0.26
		c1.55,4.72,4.7,7.38,9.36,7.89c4.61,0.51,8.31-1.41,10.72-5.54c0.42-0.73,0.74-1.51,1.07-2.33c0.15-0.38,0.31-0.76,0.47-1.14
		l0.47-1.08l0.61,1.63c0.14,0.38,0.29,0.75,0.42,1.13c1.07,3.15,3.48,5.6,6.61,6.73c3.15,1.14,6.6,0.78,9.46-0.97
		c3.08-1.88,4.39-4.94,5.18-7.39l0.17-0.53l0.5,0.25c0.54,0.27,0.63,0.77,0.69,1.09c0.02,0.09,0.03,0.18,0.06,0.26
		c1.55,4.72,4.7,7.38,9.36,7.89c4.61,0.51,8.31-1.41,10.72-5.54c0.42-0.73,0.74-1.51,1.07-2.33c0.15-0.38,0.31-0.76,0.47-1.14
		l0.47-1.08l0.61,1.63c0.14,0.38,0.29,0.75,0.42,1.13c1.07,3.15,3.48,5.6,6.61,6.73c3.15,1.14,6.6,0.78,9.46-0.97
		c3.08-1.88,4.39-4.94,5.18-7.39l0.39-1.19l0.5,1.15c0.14,0.32,0.28,0.64,0.42,0.96c0.72,1.68,1.4,3.26,2.48,4.65l0.1,0.13
		l-0.03,67.26l-0.84,0.04c-0.3,0.02-0.59,0.04-0.89,0.04C192.44,193.91,180.48,193.91,168.53,193.91z M85.43,192.9l0,0.48
		L85.43,192.9z M131.7,192.91C131.71,192.91,131.71,192.91,131.7,192.91c0.33,0.02,0.64,0.04,0.95,0.04c23.92,0,47.84,0,71.75,0
		c0.26,0,0.51-0.01,0.77-0.03l0.03-66.02c-1.07-1.41-1.77-3-2.43-4.56c-0.89,2.36-2.33,4.99-5.19,6.74
		c-3.12,1.91-6.87,2.29-10.29,1.06c-3.4-1.23-6.02-3.89-7.19-7.32c-0.06-0.17-0.12-0.33-0.18-0.5c0,0,0,0.01,0,0.01
		c-0.33,0.82-0.68,1.67-1.13,2.46c-2.61,4.48-6.63,6.56-11.65,6.01c-4.98-0.55-8.49-3.49-10.15-8.5c-0.89,2.37-2.32,5.03-5.21,6.79
		c-3.12,1.91-6.87,2.29-10.29,1.06c-3.4-1.23-6.02-3.89-7.19-7.32c-0.06-0.17-0.12-0.33-0.18-0.5c0,0,0,0.01,0,0.01
		c-0.33,0.82-0.68,1.67-1.13,2.46c-2.61,4.48-6.63,6.56-11.65,6.01c-4.98-0.55-8.49-3.49-10.15-8.5c-0.89,2.37-2.33,5.03-5.21,6.79
		c-3.12,1.91-6.87,2.29-10.29,1.06c-3.4-1.23-6.02-3.89-7.19-7.32c-0.06-0.17-0.12-0.35-0.19-0.52c-0.67,1.57-1.38,3.18-2.45,4.61
		l0.03,65.99l16.23-0.02l0-10c0.01-12.79,0.01-26.02-0.03-39.03c0-0.89,0.08-1.53,0.52-1.97c0.38-0.37,0.95-0.52,1.87-0.52
		c8.24,0.1,16.59,0.1,24.83,0c0.94-0.01,1.49,0.14,1.87,0.52c0.44,0.43,0.52,1.07,0.52,1.97c-0.04,13.01-0.03,26.24-0.03,39.03
		L131.7,192.91z M186.89,176.67c-0.01,0-0.02,0-0.03,0c-11.99-0.05-24.38-0.05-36.82,0c-0.62-0.01-1.21-0.05-1.62-0.46
		c-0.41-0.41-0.46-1.04-0.46-1.6c0.05-10.13,0.05-20.59,0-31.1c0-0.57,0.05-1.21,0.46-1.62c0.41-0.41,1.04-0.46,1.6-0.45
		c4.52,0.05,9.12,0.04,13.57,0.03c3.22-0.01,6.44-0.01,9.65,0c4.45,0.01,9.06,0.01,13.59-0.03c0.57-0.01,1.2,0.04,1.61,0.45
		c0.41,0.41,0.47,1.04,0.46,1.6c-0.05,10.14-0.05,20.6,0,31.1c0,0.6-0.05,1.2-0.46,1.61C188.05,176.61,187.44,176.67,186.89,176.67z
		 M168.49,175.68c6.2,0,12.33,0.01,18.37,0.04c0.01,0,0.02,0,0.02,0c0.48,0,0.77-0.06,0.89-0.18c0.13-0.13,0.18-0.42,0.18-0.93
		c-0.05-10.5-0.05-20.96,0-31.11c0-0.5-0.06-0.8-0.18-0.92c-0.13-0.13-0.42-0.19-0.93-0.18c-4.53,0.05-9.14,0.04-13.6,0.03
		c-3.22,0-6.43-0.01-9.65,0c-4.45,0.01-9.05,0.01-13.58-0.03c-0.5-0.01-0.79,0.05-0.91,0.18c-0.13,0.13-0.18,0.42-0.18,0.94
		c0.05,10.51,0.05,20.98,0,31.11c0,0.49,0.06,0.79,0.18,0.92c0.12,0.12,0.41,0.18,0.91,0.18c0.01,0,0.01,0,0.02,0
		C156.21,175.69,162.38,175.68,168.49,175.68z"/>
</g>
<g>
	<path class="st2" d="M134.15,121.03c-0.52,1.18-0.93,2.42-1.57,3.52c-2.49,4.28-6.33,6.31-11.18,5.77
		c-4.93-0.54-8.2-3.47-9.76-8.22c-0.13-0.38-0.06-0.85-0.51-1.08c0-7.85-0.02-15.7,0.04-23.56c0.01-1.17-0.39-1.35-1.43-1.34
		c-6.66,0.04-13.33,0.04-19.99,0c-1.03-0.01-1.44,0.17-1.43,1.34c0.06,7.85,0.03,15.71,0.04,23.56c-0.86,1.97-1.63,3.99-2.96,5.72
		c-3.24,2.9-6.88,4.38-11.29,3.31c-4.63-1.12-8.22-5.27-8.66-10.01c-0.08-0.87,0.15-1.64,0.45-2.42c2.36-6.29,4.71-12.58,7.08-18.86
		c0.52-1.39,0.92-2.78,1.14-4.27c0.81-5.75,5.53-9.82,11.35-9.86c8.58-0.05,17.15-0.05,25.73-0.06c14.22,0.02,28.43,0.04,42.65,0.05
		c8.68,0,17.37-0.03,26.05-0.05c8.22,0.02,16.44,0.04,24.65,0.05c7.34,0.01,11.64,3.82,12.56,11.11c0.07,0.58,0.28,1.15,0.49,1.7
		c2.45,6.57,4.86,13.16,7.42,19.68c0.71,1.81,0.65,3.46,0.12,5.2c-2.28,7.51-11.35,10.51-17.66,5.85c-0.62-0.46-1.21-0.95-1.81-1.43
		c-1.34-1.72-2.09-3.75-2.96-5.71c0-7.85-0.02-15.7,0.04-23.56c0.01-1.17-0.39-1.35-1.43-1.34c-6.66,0.04-13.33,0.04-19.99,0
		c-1.03-0.01-1.44,0.17-1.43,1.34c0.06,7.85,0.03,15.71,0.04,23.56c-0.52,1.18-0.93,2.42-1.57,3.52c-2.49,4.28-6.33,6.31-11.18,5.77
		c-4.93-0.54-8.2-3.47-9.76-8.22c-0.13-0.38-0.06-0.85-0.51-1.08c0-7.85-0.02-15.7,0.04-23.56c0.01-1.17-0.39-1.35-1.43-1.34
		c-6.66,0.04-13.33,0.04-19.99,0c-1.03-0.01-1.44,0.17-1.43,1.34C134.18,105.32,134.15,113.17,134.15,121.03z"/>
	<path class="st1" d="M76.92,130.89c-0.96,0-1.93-0.12-2.92-0.36c-4.85-1.17-8.56-5.46-9.02-10.43c-0.09-1.01,0.2-1.89,0.48-2.63
		c0.98-2.6,1.95-5.2,2.93-7.8c1.38-3.69,2.76-7.37,4.15-11.06c0.57-1.5,0.92-2.83,1.11-4.17c0.85-6.01,5.71-10.23,11.82-10.27
		c6.06-0.04,12.22-0.04,18.18-0.05c2.52,0,5.03-0.01,7.55-0.01l12.55,0.02c10.04,0.01,20.07,0.03,30.11,0.03
		c5.99,0,11.96-0.01,17.94-0.03l8.11-0.02l7.25,0.02c5.8,0.01,11.6,0.03,17.4,0.04c7.58,0.01,12.08,4,13.03,11.53
		c0.07,0.53,0.27,1.07,0.46,1.59c0.59,1.59,1.18,3.18,1.77,4.77c1.82,4.9,3.7,9.96,5.65,14.91c0.7,1.77,0.74,3.52,0.13,5.52
		c-1.13,3.73-3.91,6.57-7.63,7.8c-3.72,1.23-7.64,0.61-10.78-1.7c-0.43-0.32-0.85-0.66-1.26-0.99c-0.19-0.15-0.37-0.3-0.56-0.45
		l-0.08-0.08c-1.16-1.49-1.9-3.2-2.61-4.86c-0.14-0.32-0.27-0.64-0.41-0.95l-0.04-0.09v-0.1c0-1.93,0-3.86,0-5.79
		c0-5.82,0-11.85,0.04-17.77c0-0.49-0.07-0.66-0.14-0.73c-0.12-0.12-0.52-0.13-0.81-0.13c-6.6,0.04-13.32,0.04-19.99,0
		c-0.32,0-0.69,0.01-0.81,0.13c-0.06,0.06-0.14,0.24-0.14,0.73c0.04,5.93,0.04,11.96,0.04,17.8c0,1.92,0,3.84,0,5.77v0.1l-0.04,0.09
		c-0.16,0.37-0.31,0.74-0.46,1.11c-0.33,0.82-0.68,1.67-1.13,2.46c-2.61,4.48-6.64,6.56-11.65,6.01c-4.99-0.55-8.51-3.5-10.16-8.54
		c-0.04-0.13-0.07-0.26-0.09-0.39c-0.05-0.3-0.08-0.36-0.18-0.41l-0.26-0.13v-0.29c0-1.93,0-3.86,0-5.79c0-5.82,0-11.85,0.04-17.77
		c0-0.49-0.07-0.66-0.14-0.73c-0.12-0.12-0.52-0.13-0.81-0.13c-6.6,0.04-13.32,0.04-19.99,0c-0.32,0-0.69,0.01-0.81,0.13
		c-0.06,0.06-0.14,0.24-0.14,0.73c0.04,5.93,0.04,11.96,0.04,17.8c0,1.92,0,3.84,0,5.77v0.1l-0.04,0.09
		c-0.16,0.37-0.31,0.74-0.46,1.11c-0.33,0.82-0.68,1.67-1.13,2.46c-2.61,4.48-6.64,6.56-11.65,6.01c-4.99-0.55-8.51-3.5-10.16-8.54
		c-0.04-0.13-0.07-0.26-0.09-0.39c-0.05-0.3-0.08-0.36-0.18-0.41l-0.26-0.13v-6.06c0-5.83,0-11.86,0.04-17.8
		c0-0.49-0.07-0.66-0.14-0.73c-0.12-0.12-0.52-0.13-0.81-0.13c-6.6,0.04-13.32,0.04-19.99,0c-0.32,0-0.69,0.01-0.81,0.13
		c-0.06,0.06-0.14,0.24-0.14,0.73c0.04,5.92,0.04,11.95,0.04,17.77c0,1.93,0,3.86,0,5.79v0.1l-0.04,0.09
		c-0.13,0.29-0.25,0.57-0.37,0.86c-0.72,1.69-1.47,3.43-2.64,4.96l-0.06,0.06C82.9,129.64,80,130.89,76.92,130.89z M111.19,85.05
		c-2.52,0.01-5.03,0.01-7.55,0.01c-5.96,0.01-12.12,0.01-18.17,0.05c-5.63,0.03-10.1,3.92-10.88,9.44c-0.2,1.41-0.57,2.8-1.16,4.38
		c-1.39,3.68-2.77,7.37-4.15,11.06c-0.97,2.6-1.95,5.2-2.93,7.8c-0.31,0.82-0.49,1.48-0.42,2.21c0.42,4.57,3.83,8.51,8.3,9.59
		c3.85,0.93,7.39-0.11,10.83-3.18c1.08-1.42,1.8-3.1,2.5-4.72c0.11-0.26,0.22-0.52,0.33-0.78c0-1.9,0-3.79,0-5.69
		c0-5.82,0.01-11.84-0.04-17.76c0-0.46,0.04-1.03,0.42-1.41c0.39-0.39,0.96-0.42,1.49-0.41c6.67,0.04,13.39,0.04,19.98,0
		c0.51,0,1.1,0.03,1.49,0.41c0.38,0.38,0.42,0.95,0.42,1.41c-0.05,5.93-0.04,11.96-0.04,17.79v5.51c0.31,0.28,0.38,0.65,0.43,0.92
		c0.02,0.09,0.03,0.18,0.06,0.26c1.55,4.72,4.7,7.38,9.36,7.89c4.61,0.51,8.31-1.41,10.72-5.54c0.42-0.73,0.74-1.51,1.07-2.33
		c0.14-0.35,0.28-0.7,0.43-1.04c0-1.89,0-3.78,0-5.67c0-5.83,0.01-11.86-0.04-17.79c0-0.46,0.04-1.03,0.42-1.41
		c0.39-0.39,0.96-0.42,1.49-0.41c6.67,0.04,13.39,0.04,19.98,0c0.51,0,1.1,0.03,1.49,0.41c0.38,0.38,0.42,0.95,0.42,1.41
		c-0.05,5.92-0.04,11.94-0.04,17.76c0,1.85,0,3.69,0,5.54c0.31,0.28,0.38,0.65,0.43,0.92c0.02,0.09,0.03,0.18,0.06,0.26
		c1.55,4.72,4.7,7.38,9.36,7.89c4.61,0.51,8.31-1.41,10.72-5.54c0.42-0.73,0.74-1.51,1.07-2.33c0.14-0.35,0.28-0.7,0.43-1.04
		c0-1.89,0-3.78,0-5.67c0-5.83,0.01-11.86-0.04-17.79c0-0.46,0.04-1.03,0.42-1.41c0.39-0.39,0.97-0.42,1.49-0.41
		c6.67,0.04,13.39,0.04,19.98,0c0.52,0,1.1,0.03,1.49,0.41c0.38,0.38,0.42,0.95,0.42,1.41c-0.05,5.92-0.04,11.94-0.04,17.76
		c0,1.9,0,3.79,0,5.69c0.13,0.29,0.25,0.58,0.38,0.87c0.71,1.66,1.38,3.22,2.45,4.6c0.17,0.14,0.35,0.28,0.52,0.42
		c0.4,0.32,0.81,0.66,1.23,0.97c2.88,2.13,6.49,2.7,9.91,1.57c3.41-1.13,5.97-3.75,7.01-7.17c0.55-1.8,0.51-3.31-0.11-4.89
		c-1.95-4.95-3.83-10.02-5.65-14.92c-0.59-1.59-1.18-3.18-1.77-4.77c-0.2-0.55-0.44-1.17-0.52-1.81
		c-0.89-7.08-4.96-10.68-12.08-10.69c-5.8-0.01-11.6-0.02-17.4-0.04l-7.25-0.02l-8.11,0.02c-5.98,0.01-11.97,0.03-17.94,0.03
		c-10.04,0-20.07-0.02-30.11-0.03L111.19,85.05z"/>
</g>
<g>
	<path class="st2" d="M131.23,193.36c0.47,0.02,0.95,0.07,1.42,0.07c23.92,0,47.84,0,71.75,0c0.42,0,0.83-0.04,1.25-0.06
		c7.03,0.02,14.07,0.07,21.1,0.03c1.32-0.01,1.88,0.21,1.8,1.71c-0.14,2.79-0.08,5.6-0.02,8.4c0.02,0.98-0.22,1.46-1.27,1.31
		c-0.29-0.04-0.6-0.01-0.89-0.01c-53.88,0-107.77-0.01-161.65,0.05c-1.86,0-2.29-0.5-2.18-2.25c0.16-2.43,0.17-4.89-0.01-7.33
		c-0.12-1.68,0.51-1.91,1.99-1.9c6.97,0.06,13.95,0,20.92-0.02c5.73-0.01,11.45-0.01,17.18-0.02
		C112.15,193.36,121.69,193.36,131.23,193.36z"/>
	<path class="st1" d="M64.7,205.34c-0.79,0-1.65-0.08-2.17-0.62c-0.5-0.54-0.53-1.34-0.47-2.13c0.16-2.52,0.16-4.97,0-7.26
		c-0.06-0.9,0.07-1.47,0.43-1.86c0.48-0.52,1.27-0.55,2.04-0.55c5.13,0.04,10.35,0.02,15.4,0c1.84-0.01,3.68-0.02,5.52-0.02
		l17.18-0.02l28.63,0c0.15,0.01,0.31,0.02,0.46,0.03c0.32,0.02,0.63,0.04,0.94,0.04c23.92,0,47.84,0,71.75,0
		c0.28,0,0.55-0.02,0.83-0.03c0.13-0.01,0.26-0.02,0.4-0.02c1.83,0,3.65,0.01,5.46,0.02c5.13,0.02,10.44,0.04,15.66,0.01
		c0.82,0,1.44,0.08,1.85,0.51c0.34,0.36,0.48,0.88,0.44,1.7c-0.13,2.73-0.08,5.52-0.02,8.22l0,0.15c0.01,0.51-0.03,1.14-0.46,1.52
		c-0.31,0.27-0.75,0.36-1.35,0.27c-0.16-0.02-0.33-0.02-0.52-0.01c-0.1,0-0.2,0.01-0.3,0.01l-22.58,0c-45.58,0-92.72,0-139.08,0.05
		C64.71,205.34,64.71,205.34,64.7,205.34z M64.4,193.87c-0.53,0-1.02,0.04-1.22,0.24c-0.16,0.17-0.22,0.55-0.18,1.14
		c0.17,2.34,0.17,4.83,0.01,7.39c-0.05,0.77,0.02,1.2,0.22,1.42c0.21,0.22,0.68,0.3,1.49,0.32c46.36-0.05,93.49-0.05,139.08-0.05
		l22.58,0c0.09,0,0.18,0,0.26-0.01c0.22-0.01,0.46-0.02,0.7,0.02c0.29,0.04,0.5,0.03,0.58-0.05c0.07-0.06,0.15-0.25,0.14-0.78
		l0-0.15c-0.06-2.72-0.11-5.52,0.02-8.28c0.03-0.51-0.03-0.85-0.17-1c-0.15-0.15-0.49-0.21-1.15-0.21
		c-5.22,0.03-10.53,0.01-15.67-0.01c-1.81-0.01-3.62-0.01-5.43-0.02l-0.36,0.02c-0.3,0.02-0.59,0.04-0.89,0.04
		c-23.92,0-47.83,0-71.75,0c-0.34,0-0.67-0.02-1-0.04c-0.15-0.01-0.29-0.02-0.44-0.03h-28.6l-17.16,0.02
		c-1.85,0-3.69,0.01-5.53,0.02c-5.05,0.02-10.27,0.04-15.41,0C64.47,193.87,64.44,193.87,64.4,193.87z"/>
</g>
<g>
	<path class="st2" d="M179.9,84.58c-8.68,0.02-17.37,0.05-26.05,0.05c-14.22,0-28.44-0.03-42.65-0.05c0-7.09,0.04-14.18-0.02-21.27
		c-0.01-1.24,0.31-1.6,1.58-1.59c21.86,0.04,43.73,0.04,65.59,0c1.27,0,1.59,0.35,1.58,1.59C179.86,70.4,179.89,77.49,179.9,84.58z
		 M145.54,76.02c5.84,0,11.68,0,17.51,0c1.85,0,3.7,0.06,5.54-0.03c1.6-0.07,2.66-1.28,2.66-2.8c0-1.52-1.07-2.66-2.66-2.81
		c-0.35-0.03-0.71-0.01-1.07-0.01c-14.65,0-29.31,0-43.96,0c-0.48,0-0.96-0.04-1.43,0.05c-1.16,0.22-1.94,0.94-2.23,2.07
		c-0.29,1.13,0.05,2.12,0.94,2.89c0.73,0.63,1.62,0.65,2.53,0.64C130.77,76.01,138.16,76.02,145.54,76.02z"/>
	<path class="st1" d="M154.76,85.1c-0.31,0-0.61,0-0.92,0c-10.04,0-20.07-0.02-30.11-0.03l-13.02-0.02v-0.48
		c0-1.81,0-3.61,0.01-5.42c0.01-5.19,0.02-10.56-0.03-15.84c0-0.59,0.05-1.2,0.45-1.61c0.41-0.41,1.06-0.45,1.6-0.47
		c21.76,0.04,43.83,0.04,65.59,0c0.56,0.01,1.19,0.05,1.6,0.47c0.41,0.41,0.46,1.02,0.45,1.61c-0.04,5.31-0.03,10.71-0.03,15.93
		c0,1.78,0.01,3.56,0.01,5.34v0.48l-8.59,0.02C166.11,85.09,160.43,85.1,154.76,85.1z M111.67,84.1l12.07,0.02
		c10.04,0.01,20.07,0.03,30.11,0.03c5.98,0,11.96-0.01,17.94-0.03l7.63-0.02c0-1.62,0-3.24-0.01-4.86
		c-0.01-5.22-0.02-10.62,0.03-15.94c0-0.51-0.05-0.8-0.18-0.93c-0.12-0.12-0.42-0.18-0.91-0.18c0,0-0.01,0-0.01,0
		c-21.76,0.04-43.83,0.04-65.59,0c-0.52-0.01-0.8,0.06-0.92,0.18c-0.12,0.13-0.18,0.42-0.18,0.93c0.04,5.28,0.03,10.66,0.03,15.85
		C111.67,80.8,111.67,82.45,111.67,84.1z M166.25,76.51c-0.53,0-1.06,0-1.59-0.01c-0.54,0-1.05-0.02-1.61-0.01l-17.51,0l-4.64,0
		c-5.84,0-11.68,0-17.52,0.01c-0.88,0-1.95,0-2.84-0.76c-1.04-0.88-1.43-2.08-1.1-3.37c0.33-1.31,1.25-2.16,2.6-2.42
		c0.4-0.08,0.8-0.07,1.19-0.06c0.11,0,0.22,0,0.33,0c14.65,0,29.31,0,43.96,0c0.1,0,0.19,0,0.29,0c0.27,0,0.54-0.01,0.83,0.02
		c1.85,0.18,3.1,1.5,3.1,3.29c0,1.82-1.31,3.2-3.12,3.28C167.83,76.5,167.04,76.51,166.25,76.51z M163.08,75.54
		c0.53,0,1.06,0,1.59,0.01c1.28,0.01,2.61,0.02,3.9-0.04c1.3-0.06,2.21-1.01,2.21-2.32c0-1.29-0.88-2.2-2.23-2.34
		c-0.23-0.02-0.47-0.02-0.72-0.01c-0.1,0-0.2,0-0.31,0c-14.66,0-29.31,0-43.96,0c-0.11,0-0.23,0-0.34,0
		c-0.35-0.01-0.69-0.01-0.99,0.05c-0.99,0.19-1.61,0.77-1.85,1.72c-0.24,0.95,0.03,1.76,0.79,2.41c0.58,0.49,1.28,0.53,2.22,0.53
		c5.84-0.01,11.68-0.01,17.52-0.01l9.02,0l13.14,0C163.06,75.54,163.07,75.54,163.08,75.54z"/>
</g>
<g>
	<path class="st4" d="M131.23,193.36c-9.54,0-19.07,0-28.61,0c0-16.5,0.03-33.01-0.02-49.51c0-1.49,0.24-2.02,1.91-2
		c8.28,0.1,16.56,0.1,24.84,0c1.67-0.02,1.91,0.52,1.91,2C131.2,160.35,131.22,176.86,131.23,193.36z M128.37,164.78
		c0-1.56-1.26-2.84-2.82-2.87c-1.56-0.03-2.86,1.21-2.91,2.77c-0.05,1.63,1.27,2.99,2.91,2.96
		C127.11,167.62,128.37,166.34,128.37,164.78z"/>
	<path class="st1" d="M131.7,193.84h-29.57l0-10.96c0.01-12.79,0.01-26.02-0.03-39.03c0-0.89,0.08-1.53,0.52-1.97
		c0.38-0.37,0.95-0.52,1.87-0.52c8.24,0.1,16.59,0.1,24.83,0c0.94-0.01,1.49,0.14,1.87,0.52c0.44,0.43,0.52,1.07,0.52,1.97
		c-0.04,13.01-0.03,26.24-0.03,39.03L131.7,193.84z M103.09,192.88h27.65l0-10c-0.01-12.79-0.01-26.02,0.03-39.03
		c0-0.74-0.07-1.11-0.24-1.28c-0.17-0.17-0.56-0.25-1.18-0.24c-8.25,0.1-16.61,0.1-24.85,0c-0.63-0.01-1.01,0.07-1.18,0.24
		c-0.17,0.17-0.24,0.54-0.24,1.28c0.04,13.01,0.03,26.24,0.03,39.03L103.09,192.88z M125.5,168.12c-0.9,0-1.75-0.35-2.38-1
		c-0.65-0.66-0.99-1.53-0.96-2.45c0.06-1.8,1.55-3.24,3.34-3.24c0.02,0,0.04,0,0.06,0c1.82,0.03,3.29,1.53,3.29,3.35l-0.48,0l0.48,0
		c0,1.82-1.48,3.31-3.3,3.34C125.54,168.12,125.52,168.12,125.5,168.12z M125.51,162.39c-1.28,0-2.35,1.03-2.39,2.31
		c-0.02,0.66,0.22,1.28,0.69,1.75c0.46,0.47,1.07,0.72,1.74,0.72c1.3-0.02,2.35-1.09,2.36-2.39c0-1.3-1.05-2.37-2.35-2.39
		C125.53,162.39,125.52,162.39,125.51,162.39z"/>
</g>
<g>
	<path class="st4" d="M168.43,141.94c6.14,0,12.27,0.03,18.41-0.03c1.24-0.01,1.6,0.31,1.6,1.58c-0.05,10.37-0.05,20.74,0,31.1
		c0.01,1.24-0.32,1.6-1.58,1.59c-12.27-0.05-24.55-0.05-36.82,0c-1.24,0-1.6-0.31-1.6-1.58c0.05-10.37,0.05-20.74,0-31.1
		c-0.01-1.24,0.31-1.61,1.58-1.59C156.16,141.98,162.29,141.94,168.43,141.94z"/>
	<path class="st1" d="M186.89,176.67c-0.01,0-0.02,0-0.03,0c-11.99-0.05-24.38-0.05-36.82,0c-0.62-0.01-1.21-0.05-1.62-0.46
		c-0.41-0.41-0.46-1.04-0.46-1.6c0.05-10.13,0.05-20.59,0-31.1c0-0.57,0.05-1.21,0.46-1.62c0.41-0.41,1.04-0.46,1.6-0.45
		c4.52,0.05,9.12,0.04,13.57,0.03c3.22-0.01,6.44-0.01,9.65,0c4.45,0.01,9.06,0.01,13.59-0.03c0.57-0.01,1.2,0.04,1.61,0.45
		c0.41,0.41,0.47,1.04,0.46,1.6c-0.05,10.14-0.05,20.6,0,31.1c0,0.6-0.05,1.2-0.46,1.61C188.05,176.61,187.44,176.67,186.89,176.67z
		 M168.49,175.68c6.2,0,12.33,0.01,18.37,0.04c0.01,0,0.02,0,0.02,0c0.48,0,0.77-0.06,0.89-0.18c0.13-0.13,0.18-0.42,0.18-0.93
		c-0.05-10.5-0.05-20.96,0-31.11c0-0.5-0.06-0.8-0.18-0.92c-0.13-0.13-0.42-0.19-0.93-0.18c-4.53,0.05-9.14,0.04-13.6,0.03
		c-3.22,0-6.43-0.01-9.65,0c-4.45,0.01-9.05,0.01-13.58-0.03c-0.5-0.01-0.79,0.05-0.91,0.18c-0.13,0.13-0.18,0.42-0.18,0.94
		c0.05,10.51,0.05,20.98,0,31.11c0,0.49,0.06,0.79,0.18,0.92c0.13,0.13,0.41,0.19,0.94,0.18
		C156.21,175.69,162.38,175.68,168.49,175.68z"/>
</g>
<g>
	<path class="st4" d="M88.36,121.03c0-7.85,0.02-15.71-0.04-23.56c-0.01-1.17,0.4-1.35,1.43-1.34c6.66,0.04,13.33,0.04,19.99,0
		c1.04-0.01,1.44,0.18,1.43,1.34c-0.06,7.85-0.04,15.7-0.04,23.56c-1.01,3.1-2.46,5.86-5.39,7.65c-6.24,3.82-14.41,0.92-16.77-6.01
		C88.78,122.12,88.56,121.57,88.36,121.03z"/>
	<path class="st1" d="M99.76,130.85c-1.36,0-2.73-0.24-4.05-0.71c-3.4-1.23-6.02-3.89-7.19-7.32c-0.13-0.37-0.26-0.73-0.4-1.09
		l-0.23-0.61v-0.09c0-1.93,0-3.86,0-5.79c0-5.82,0.01-11.84-0.04-17.76c0-0.46,0.04-1.03,0.42-1.41c0.39-0.39,0.97-0.42,1.49-0.41
		c6.67,0.04,13.39,0.04,19.98,0c0.51,0,1.1,0.03,1.49,0.41c0.38,0.38,0.42,0.95,0.42,1.41c-0.05,5.93-0.04,11.96-0.04,17.79
		l-0.02,5.91c-0.85,2.61-2.25,5.86-5.59,7.91C104.08,130.25,101.93,130.85,99.76,130.85z M88.84,120.94l0.17,0.45
		c0.14,0.37,0.28,0.75,0.41,1.13c1.07,3.15,3.48,5.6,6.61,6.73c3.15,1.14,6.6,0.78,9.46-0.97c3.05-1.87,4.36-4.88,5.16-7.32v-5.69
		c0-5.83,0-11.86,0.04-17.8c0-0.49-0.07-0.66-0.14-0.73c-0.12-0.12-0.52-0.13-0.81-0.13c-6.6,0.04-13.32,0.04-19.99,0
		c-0.32,0-0.69,0.01-0.81,0.13c-0.06,0.06-0.14,0.24-0.14,0.73c0.04,5.92,0.04,11.95,0.04,17.77
		C88.84,117.14,88.84,119.04,88.84,120.94z"/>
</g>
<g>
	<path class="st4" d="M134.15,121.03c0-7.85,0.02-15.71-0.04-23.56c-0.01-1.17,0.4-1.35,1.43-1.34c6.66,0.04,13.33,0.04,19.99,0
		c1.04-0.01,1.44,0.18,1.43,1.34c-0.06,7.85-0.04,15.7-0.04,23.56c-1.01,3.1-2.46,5.86-5.39,7.65c-6.24,3.82-14.41,0.92-16.77-6.01
		C134.57,122.12,134.36,121.57,134.15,121.03z"/>
	<path class="st1" d="M145.55,130.85c-1.36,0-2.73-0.24-4.05-0.71c-3.4-1.23-6.02-3.89-7.19-7.32c-0.13-0.37-0.27-0.73-0.4-1.1
		l-0.23-0.61v-0.09c0-1.92,0-3.84,0-5.77c0-5.83,0.01-11.86-0.04-17.79c0-0.46,0.04-1.03,0.42-1.41c0.39-0.39,0.98-0.42,1.49-0.41
		c6.67,0.04,13.39,0.04,19.98,0c0.51,0,1.1,0.03,1.49,0.41c0.38,0.38,0.42,0.95,0.42,1.41c-0.05,5.92-0.04,11.94-0.04,17.76
		c0,1.93,0,3.86,0,5.79l-0.02,0.15c-0.85,2.61-2.25,5.86-5.59,7.91C149.87,130.25,147.72,130.85,145.55,130.85z M134.63,120.94
		l0.17,0.44c0.14,0.38,0.29,0.75,0.42,1.13c1.07,3.15,3.48,5.6,6.61,6.73c3.15,1.14,6.6,0.78,9.46-0.97
		c3.05-1.87,4.36-4.88,5.16-7.32c0-1.9,0-3.81,0-5.71c0-5.82,0-11.85,0.04-17.77c0-0.49-0.07-0.66-0.14-0.73
		c-0.12-0.12-0.52-0.13-0.81-0.13c-6.6,0.04-13.32,0.04-19.99,0c-0.32,0-0.69,0.01-0.81,0.13c-0.06,0.06-0.14,0.24-0.14,0.73
		c0.04,5.93,0.04,11.96,0.04,17.8C134.63,117.16,134.63,119.05,134.63,120.94z"/>
</g>
<g>
	<path class="st4" d="M179.95,121.03c0-7.85,0.02-15.71-0.04-23.56c-0.01-1.17,0.4-1.35,1.43-1.34c6.66,0.04,13.33,0.04,19.99,0
		c1.04-0.01,1.44,0.18,1.43,1.34c-0.06,7.85-0.04,15.7-0.04,23.56c-1.01,3.1-2.46,5.86-5.39,7.65c-6.24,3.82-14.41,0.92-16.77-6.01
		C180.37,122.12,180.15,121.57,179.95,121.03z"/>
	<path class="st1" d="M191.34,130.85c-1.36,0-2.73-0.24-4.05-0.71c-3.4-1.23-6.02-3.89-7.19-7.32c-0.13-0.37-0.27-0.73-0.4-1.1
		l-0.23-0.61v-0.09c0-1.92,0-3.84,0-5.77c0-5.83,0.01-11.86-0.04-17.79c0-0.46,0.04-1.03,0.42-1.41c0.39-0.39,0.98-0.42,1.49-0.41
		c6.67,0.04,13.39,0.04,19.98,0c0.51,0,1.1,0.03,1.49,0.41c0.38,0.38,0.42,0.95,0.42,1.41c-0.05,5.92-0.04,11.94-0.04,17.76
		c0,1.93,0,3.86,0,5.79l-0.02,0.15c-0.85,2.61-2.25,5.86-5.59,7.91C195.66,130.25,193.51,130.85,191.34,130.85z M180.43,120.94
		l0.17,0.44c0.14,0.38,0.29,0.75,0.42,1.13c1.07,3.15,3.48,5.6,6.61,6.73c3.15,1.14,6.6,0.78,9.46-0.97
		c3.05-1.87,4.36-4.88,5.16-7.32c0-1.9,0-3.81,0-5.71c0-5.82,0-11.85,0.04-17.77c0-0.49-0.07-0.66-0.14-0.73
		c-0.12-0.12-0.52-0.13-0.81-0.13c-6.6,0.04-13.32,0.04-19.99,0c-0.32,0-0.69,0.01-0.81,0.13c-0.06,0.06-0.14,0.24-0.14,0.73
		c0.04,5.93,0.04,11.96,0.04,17.8C180.43,117.16,180.42,119.05,180.43,120.94z"/>
</g>
<g>
	<path class="st2" d="M145.54,76.02c-7.39,0-14.77,0-22.16,0.01c-0.91,0-1.8-0.02-2.53-0.64c-0.9-0.77-1.23-1.76-0.94-2.89
		c0.29-1.13,1.07-1.85,2.23-2.07c0.46-0.09,0.95-0.05,1.43-0.05c14.65,0,29.31,0,43.96,0c0.36,0,0.72-0.02,1.07,0.01
		c1.6,0.15,2.66,1.29,2.66,2.81c0,1.52-1.06,2.73-2.66,2.8c-1.84,0.08-3.69,0.03-5.54,0.03C157.22,76.02,151.38,76.02,145.54,76.02z
		"/>
	<path class="st1" d="M166.25,76.51c-0.53,0-1.06,0-1.59-0.01c-0.54,0-1.08-0.01-1.61-0.01l-22.55,0c-5.71,0-11.42,0-17.12,0.01
		c-0.87,0-1.95,0-2.84-0.76c-1.04-0.88-1.43-2.08-1.1-3.37c0.33-1.31,1.25-2.16,2.6-2.42c0.4-0.08,0.8-0.07,1.19-0.06
		c0.11,0,0.22,0,0.33,0c14.65,0,29.31,0,43.96,0c0.1,0,0.19,0,0.29,0c0.27,0,0.54-0.01,0.83,0.02c1.85,0.18,3.1,1.5,3.1,3.29
		c0,1.82-1.31,3.2-3.12,3.28C167.83,76.5,167.04,76.51,166.25,76.51z M163.08,75.54c0.53,0,1.06,0,1.59,0.01
		c1.28,0.01,2.61,0.02,3.9-0.04c1.3-0.06,2.21-1.01,2.21-2.32c0-1.29-0.88-2.2-2.23-2.34c-0.23-0.02-0.47-0.02-0.72-0.01
		c-0.1,0-0.2,0-0.31,0c-14.66,0-29.31,0-43.96,0c-0.11,0-0.23,0-0.34,0c-0.35-0.01-0.69-0.01-0.99,0.05
		c-0.99,0.19-1.61,0.77-1.85,1.72c-0.24,0.95,0.03,1.76,0.79,2.41c0.58,0.49,1.28,0.53,2.22,0.53c5.71-0.01,11.42-0.01,17.12-0.01
		l22.55,0C163.06,75.54,163.07,75.54,163.08,75.54z"/>
</g>
<g>
	<path class="st2" d="M128.37,164.78c0,1.56-1.26,2.84-2.83,2.86c-1.63,0.02-2.96-1.33-2.91-2.96c0.05-1.56,1.35-2.8,2.91-2.77
		C127.12,161.93,128.38,163.22,128.37,164.78z"/>
	<path class="st1" d="M125.5,168.12c-0.9,0-1.75-0.35-2.38-1c-0.65-0.66-0.99-1.53-0.96-2.45c0.06-1.8,1.55-3.24,3.34-3.24
		c0.02,0,0.04,0,0.06,0c1.82,0.03,3.29,1.53,3.29,3.35l-0.48,0l0.48,0c0,1.82-1.48,3.31-3.3,3.34
		C125.54,168.12,125.52,168.12,125.5,168.12z M125.51,162.39c-1.28,0-2.35,1.03-2.39,2.31c-0.02,0.66,0.22,1.28,0.69,1.75
		c0.46,0.47,1.07,0.72,1.74,0.72c1.3-0.02,2.35-1.09,2.36-2.39l0,0c0-1.3-1.05-2.37-2.35-2.39
		C125.53,162.39,125.52,162.39,125.51,162.39z"/>
</g>
</svg>
