<?xml version="1.0" encoding="utf-8"?>
<!-- Generator: Adobe Illustrator 28.3.0, SVG Export Plug-In . SVG Version: 6.00 Build 0)  -->
<svg version="1.1" id="Layer_1" xmlns="http://www.w3.org/2000/svg" xmlns:xlink="http://www.w3.org/1999/xlink" x="0px" y="0px"
	 viewBox="0 0 292.41 382.15" style="enable-background:new 0 0 292.41 382.15;" xml:space="preserve">
<style type="text/css">
	.st0{fill:#FFFFFF;}
	.st1{fill:#0452AD;}
	.st2{fill:#56A3FE;}
	.st3{fill:#3B3B3D;}
	.st4{fill:#FEFEFE;}
</style>
<g>
	<path class="st1" d="M50.04,373.16c-5.44-1.4-10.75-3.2-15.48-6.32c-7.45-4.91-7.55-12.16-0.15-17.17
		c7.49-5.07,16.23-6.84,24.87-8.67c13.67-2.9,27.54-4.4,41.47-5.38c1.83-0.13,3.66-0.38,6.25-0.65c-1.78-1.56-3.04-2.69-4.32-3.79
		c-26.64-22.85-50.33-48.32-69.16-78.08c-16.71-26.42-28.28-54.79-32.24-85.99C-8.76,88.05,41.43,22.25,110.17,4.58
		c80.85-20.79,163.45,31.41,179.43,113.51c6.33,32.52,1.6,63.99-10.54,94.49c-13.61,34.2-34.91,63.33-59.98,89.91
		c-10.02,10.62-20.63,20.62-31.74,30.1c-0.72,0.62-1.42,1.27-2.47,2.22c10.45,1.09,20.33,1.99,30.18,3.2
		c10.88,1.33,21.66,3.26,32.13,6.65c3.56,1.15,7.03,2.53,10.18,4.58c8.19,5.31,8.15,12.83-0.17,18.01
		c-6.33,3.94-13.46,5.78-20.64,7.38c-22.11,4.92-44.59,6.49-67.14,7.51c-1.25,0.06-10.16-0.08-10.88-0.08
		c-8.47-0.01-16.94-0.01-25.42-0.01C132.39,382.05,73.71,379.28,50.04,373.16z M9.07,144.7c0.3,6.81,0.32,11.52,0.74,16.25
		c1.99,21.97,8.3,42.67,17.72,62.5c12.79,26.94,30.35,50.59,50.71,72.18c19.46,20.64,41.1,38.81,64.49,54.9
		c2.6,1.79,4.35,1.76,6.9-0.06c26.34-18.84,50.68-39.9,72.06-64.3c19.68-22.44,36.45-46.76,47.87-74.47
		c11.35-27.53,16.64-55.99,12.13-85.78c-4.92-32.52-19.64-59.89-44.19-81.73c-30.42-27.06-66.17-38.35-106.6-34.03
		c-34.65,3.71-63.65,18.93-86.88,44.86C20.67,81.1,9.4,111.87,9.07,144.7z M146.33,373.49c27.56-0.17,55.05-1.31,82.22-6.39
		c7.95-1.48,15.84-3.26,23.15-6.95c2.57-1.3,2.79-2.47,0.06-3.89c-3.78-1.97-7.76-3.34-11.86-4.4c-21.09-5.49-42.69-7.08-64.34-8.35
		c-1.59-0.09-2.54,0.85-3.6,1.67c-6.9,5.33-13.98,10.41-21.12,15.42c-3.19,2.24-5.8,2.41-9.12,0.13
		c-7.29-5.01-14.63-9.93-21.58-15.4c-1.54-1.21-3.05-1.77-5.1-1.68c-15.82,0.76-31.57,2.14-47.17,4.86
		c-9.06,1.58-18.14,3.27-26.5,7.4c-1.07,0.53-2.69,0.92-2.73,2.24c-0.04,1.35,1.59,1.73,2.65,2.26c7.21,3.56,14.99,5.27,22.82,6.73
		C91.29,372.2,118.78,373.33,146.33,373.49z"/>
	<path class="st2" d="M9.07,144.7c0.34-32.83,11.6-63.6,34.96-89.67c23.24-25.93,52.23-41.15,86.88-44.86
		c40.43-4.32,76.18,6.97,106.6,34.03c24.55,21.83,39.27,49.2,44.19,81.73c4.5,29.78-0.78,58.25-12.13,85.78
		c-11.42,27.71-28.19,52.03-47.87,74.47c-21.39,24.4-45.72,45.46-72.06,64.3c-2.54,1.82-4.3,1.84-6.9,0.06
		c-23.39-16.08-45.03-34.25-64.49-54.9c-20.36-21.59-37.92-45.24-50.71-72.18c-9.42-19.83-15.74-40.53-17.72-62.5
		C9.38,156.22,9.36,151.51,9.07,144.7z M146.31,28.08C83.42,27.29,29.02,78.41,29,144.87c-0.02,65.86,53.71,116.65,116.61,116.89
		c63.72,0.25,117.11-51.72,117.32-116.57C263.13,79.54,208.92,27.42,146.31,28.08z"/>
</g>
<path class="st1" d="M146.54,29.08c62.61-0.66,116.83,51.47,116.62,117.11c-0.2,64.86-53.59,116.82-117.32,116.57
	c-62.9-0.24-116.63-51.03-116.61-116.89C29.26,79.41,83.66,28.29,146.54,29.08z M38.33,145.89
	c0.11,59.66,48.43,107.88,108.04,107.82c59.54-0.06,107.93-48.6,107.79-108.13C254.02,86.17,205.7,38,146.25,37.99
	C86.63,37.97,38.21,86.37,38.33,145.89z"/>
<path class="st1" d="M88.24,127.15c-3.26,2.11-5.34,0.94-7.21-1.6c-2.17-2.96-4.56-5.74-6.78-8.66c-2.03-2.67-1.85-4.4,0.75-6.46
	c23.72-18.8,47.47-37.56,71.18-56.38c2.27-1.8,4.21-1.79,6.43,0.06c23.23,19.25,46.49,38.45,69.73,57.69
	c3.02,2.5,3.14,4.11,0.69,7.14c-2.31,2.85-4.7,5.63-6.98,8.5c-1.82,2.3-3.85,3.19-6.8,1.1c-0.87,7.52-1.72,14.74-2.54,21.96
	c-1.55,13.63-3.05,27.26-4.65,40.88c-0.55,4.65-1.33,5.23-6.02,5.23c-31.54,0-63.08,0-94.62,0c-4.48,0-5.29-0.6-5.81-5.1
	c-2.23-19.13-4.37-38.28-6.55-57.41C88.81,131.93,88.55,129.75,88.24,127.15z M166.32,166.73c0,6.6,0.03,13.2-0.02,19.81
	c-0.01,1.64,0.34,2.5,2.24,2.49c8.07-0.07,16.14-0.06,24.21-0.01c1.47,0.01,1.94-0.56,2.1-2c0.96-8.72,2.05-17.43,3.04-26.15
	c1.35-11.83,2.57-23.68,4.07-35.5c0.25-1.96-0.09-3.04-1.55-4.24c-16.39-13.52-32.77-27.06-49.07-40.69
	c-1.75-1.46-2.87-1.23-4.49,0.07c-16.53,13.18-33.09,26.33-49.72,39.38c-1.6,1.26-1.88,2.5-1.66,4.29
	c1.03,8.19,2.01,16.38,2.97,24.57c1.47,12.55,2.98,25.1,4.28,37.67c0.24,2.33,1.19,2.63,3.16,2.61c7.33-0.09,14.67-0.16,22.01,0.03
	c2.77,0.07,3.56-0.69,3.52-3.49c-0.15-12.47-0.14-24.94-0.05-37.41c0.07-10.15,7.83-18.08,17.47-18.07
	c9.65,0.01,17.35,7.94,17.47,18.09C166.38,154.36,166.32,160.54,166.32,166.73z M211.82,120.64c1.07-1.3,2.24-2.48,3.1-3.84
	c0.96-1.51-0.76-1.9-1.47-2.5c-20.71-17.19-41.47-34.33-62.18-51.53c-1.48-1.23-2.4-1.21-3.92,0C126.29,79.53,105.2,96.26,84,112.84
	c-2.25,1.76-1.24,2.58-0.13,4.1c1.22,1.68,1.96,2.35,4.03,0.7c18.89-15.12,37.9-30.08,56.86-45.1c4.24-3.36,4.72-3.36,8.84,0.04
	c18.65,15.42,37.3,30.83,55.95,46.24C210.19,119.35,210.85,119.86,211.82,120.64z M158.6,167.34c-0.01,0-0.01,0-0.02,0
	c0-6.6,0.14-13.21-0.04-19.8c-0.16-5.81-4.32-9.78-9.75-9.76c-5.42,0.02-9.61,4.04-9.67,9.84c-0.14,13.1-0.01,26.2-0.08,39.3
	c-0.01,1.95,0.83,2.21,2.45,2.18c4.71-0.08,9.43-0.15,14.14,0.02c2.29,0.08,3.1-0.47,3.03-2.92
	C158.48,179.92,158.6,173.63,158.6,167.34z"/>
</svg>
