<?xml version="1.0" encoding="utf-8"?>
<!-- Generator: Adobe Illustrator 28.3.0, SVG Export Plug-In . SVG Version: 6.00 Build 0)  -->
<svg version="1.1" id="Layer_1" xmlns="http://www.w3.org/2000/svg" xmlns:xlink="http://www.w3.org/1999/xlink" x="0px" y="0px"
	 viewBox="0 0 292.41 382.15" style="enable-background:new 0 0 292.41 382.15;" xml:space="preserve">
<style type="text/css">
	.st0{fill:#FFFFFF;}
	.st1{fill:#0452AD;}
	.st2{fill:#56A3FE;}
	.st3{fill:#3B3B3D;}
	.st4{fill:#FEFEFE;}
</style>
<g>
	<path class="st1" d="M50.04,373.16c-5.44-1.4-10.75-3.2-15.48-6.32c-7.45-4.91-7.55-12.16-0.15-17.17
		c7.49-5.07,16.23-6.84,24.87-8.67c13.67-2.9,27.54-4.4,41.47-5.38c1.83-0.13,3.66-0.38,6.25-0.65c-1.78-1.56-3.04-2.69-4.32-3.79
		c-26.64-22.85-50.33-48.32-69.16-78.08c-16.71-26.42-28.28-54.79-32.24-85.99C-8.76,88.05,41.43,22.25,110.17,4.58
		c80.85-20.79,163.45,31.41,179.43,113.51c6.33,32.52,1.6,63.99-10.54,94.49c-13.61,34.2-34.91,63.33-59.98,89.91
		c-10.02,10.62-20.63,20.62-31.74,30.1c-0.72,0.62-1.42,1.27-2.47,2.22c10.45,1.09,20.33,1.99,30.18,3.2
		c10.88,1.33,21.66,3.26,32.13,6.65c3.56,1.15,7.03,2.53,10.18,4.58c8.19,5.31,8.15,12.83-0.17,18.01
		c-6.33,3.94-13.46,5.78-20.64,7.38c-22.11,4.92-44.59,6.49-67.14,7.51c-1.25,0.06-10.16-0.08-10.88-0.08
		c-8.47-0.01-16.94-0.01-25.42-0.01C132.39,382.05,73.71,379.28,50.04,373.16z M9.07,144.7c0.3,6.81,0.32,11.52,0.74,16.25
		c1.99,21.97,8.3,42.67,17.72,62.5c12.79,26.94,30.35,50.59,50.71,72.18c19.46,20.64,41.1,38.81,64.49,54.9
		c2.6,1.79,4.35,1.76,6.9-0.06c26.34-18.84,50.68-39.9,72.06-64.3c19.68-22.44,36.45-46.76,47.87-74.47
		c11.35-27.53,16.64-55.99,12.13-85.78c-4.92-32.52-19.64-59.89-44.19-81.73c-30.42-27.06-66.17-38.35-106.6-34.03
		c-34.65,3.71-63.65,18.93-86.88,44.86C20.67,81.1,9.4,111.87,9.07,144.7z M146.33,373.49c27.56-0.17,55.05-1.31,82.22-6.39
		c7.95-1.48,15.84-3.26,23.15-6.95c2.57-1.3,2.79-2.47,0.06-3.89c-3.78-1.97-7.76-3.34-11.86-4.4c-21.09-5.49-42.69-7.08-64.34-8.35
		c-1.59-0.09-2.54,0.85-3.6,1.67c-6.9,5.33-13.98,10.41-21.12,15.42c-3.19,2.24-5.8,2.41-9.12,0.13
		c-7.29-5.01-14.63-9.93-21.58-15.4c-1.54-1.21-3.05-1.77-5.1-1.68c-15.82,0.76-31.57,2.14-47.17,4.86
		c-9.06,1.58-18.14,3.27-26.5,7.4c-1.07,0.53-2.69,0.92-2.73,2.24c-0.04,1.35,1.59,1.73,2.65,2.26c7.21,3.56,14.99,5.27,22.82,6.73
		C91.29,372.2,118.78,373.33,146.33,373.49z"/>
	<path class="st2" d="M9.07,144.7c0.34-32.83,11.6-63.6,34.96-89.67c23.24-25.93,52.23-41.15,86.88-44.86
		c40.43-4.32,76.18,6.97,106.6,34.03c24.55,21.83,39.27,49.2,44.19,81.73c4.5,29.78-0.78,58.25-12.13,85.78
		c-11.42,27.71-28.19,52.03-47.87,74.47c-21.39,24.4-45.72,45.46-72.06,64.3c-2.54,1.82-4.3,1.84-6.9,0.06
		c-23.39-16.08-45.03-34.25-64.49-54.9c-20.36-21.59-37.92-45.24-50.71-72.18c-9.42-19.83-15.74-40.53-17.72-62.5
		C9.38,156.22,9.36,151.51,9.07,144.7z M146.31,28.08C83.42,27.29,29.02,78.41,29,144.87c-0.02,65.86,53.71,116.65,116.61,116.89
		c63.72,0.25,117.11-51.72,117.32-116.57C263.13,79.54,208.92,27.42,146.31,28.08z"/>
</g>
<path class="st1" d="M146.54,28.08c62.61-0.66,116.83,51.47,116.62,117.11c-0.2,64.86-53.59,116.82-117.32,116.57
	c-62.9-0.24-116.63-51.03-116.61-116.89C29.26,78.41,83.66,27.29,146.54,28.08z M38.33,144.89
	c0.11,59.66,48.43,107.88,108.04,107.82c59.54-0.06,107.93-48.6,107.79-108.13C254.02,85.17,205.7,37,146.25,36.99
	C86.63,36.97,38.21,85.37,38.33,144.89z"/>
<g>
	<g>
		<polygon class="st0" points="96.92,132.2 98.49,131.24 101.12,130.29 112.68,129.82 182.18,129.82 190.69,131.01 193.95,132.2 
			197.27,135.05 227.22,164.56 64.68,164.56 		"/>
		<path class="st1" d="M234.07,167.36L58.9,167.34l36.25-37.36l2.37-1.37l3.04-1.1l12.12-0.5h69.7l9.01,1.26l4.02,1.47l3.85,3.32
			L234.07,167.36z M71.44,161.76h148.93l-25.02-24.65l-2.86-2.46l-2.49-0.91l-8.02-1.12h-69.24l-11.06,0.46l-1.95,0.71l-1.04,0.63
			L71.44,161.76z"/>
	</g>
	<g>
		<rect x="60.9" y="165.09" class="st0" width="171.16" height="10.91"/>
		<path class="st1" d="M234.9,178.84H58.06v-10.91l5.84-5.59l166,1l5,4.02V178.84z M63.74,173.16h165.48v-5.23H63.74V173.16z"/>
	</g>
</g>
</svg>
