<?xml version="1.0" encoding="utf-8"?>
<!-- Generator: Adobe Illustrator 28.3.0, SVG Export Plug-In . SVG Version: 6.00 Build 0)  -->
<svg version="1.1" id="Layer_1" xmlns="http://www.w3.org/2000/svg" xmlns:xlink="http://www.w3.org/1999/xlink" x="0px" y="0px"
	 viewBox="0 0 292.41 382.15" style="enable-background:new 0 0 292.41 382.15;" xml:space="preserve">
<style type="text/css">
	.st0{fill:#FFFFFF;}
	.st1{fill:#0452AD;}
	.st2{fill:#56A3FE;}
	.st3{fill:#3B3B3D;}
	.st4{fill:#FEFEFE;}
</style>
<g>
	<path class="st1" d="M50.04,373.16c-5.44-1.4-10.75-3.2-15.48-6.32c-7.45-4.91-7.55-12.16-0.15-17.17
		c7.49-5.07,16.23-6.84,24.87-8.67c13.67-2.9,27.54-4.4,41.47-5.38c1.83-0.13,3.66-0.38,6.25-0.65c-1.78-1.56-3.04-2.69-4.32-3.79
		c-26.64-22.85-50.33-48.32-69.16-78.08c-16.71-26.42-28.28-54.79-32.24-85.99C-8.76,88.05,41.43,22.25,110.17,4.58
		c80.85-20.79,163.45,31.41,179.43,113.51c6.33,32.52,1.6,63.99-10.54,94.49c-13.61,34.2-34.91,63.33-59.98,89.91
		c-10.02,10.62-20.63,20.62-31.74,30.1c-0.72,0.62-1.42,1.27-2.47,2.22c10.45,1.09,20.33,1.99,30.18,3.2
		c10.88,1.33,21.66,3.26,32.13,6.65c3.56,1.15,7.03,2.53,10.18,4.58c8.19,5.31,8.15,12.83-0.17,18.01
		c-6.33,3.94-13.46,5.78-20.64,7.38c-22.11,4.92-44.59,6.49-67.14,7.51c-1.25,0.06-10.16-0.08-10.88-0.08
		c-8.47-0.01-16.94-0.01-25.42-0.01C132.39,382.05,73.71,379.28,50.04,373.16z M9.07,144.7c0.3,6.81,0.32,11.52,0.74,16.25
		c1.99,21.97,8.3,42.67,17.72,62.5c12.79,26.94,30.35,50.59,50.71,72.18c19.46,20.64,41.1,38.81,64.49,54.9
		c2.6,1.79,4.35,1.76,6.9-0.06c26.34-18.84,50.68-39.9,72.06-64.3c19.68-22.44,36.45-46.76,47.87-74.47
		c11.35-27.53,16.64-55.99,12.13-85.78c-4.92-32.52-19.64-59.89-44.19-81.73c-30.42-27.06-66.17-38.35-106.6-34.03
		c-34.65,3.71-63.65,18.93-86.88,44.86C20.67,81.1,9.4,111.87,9.07,144.7z M146.33,373.49c27.56-0.17,55.05-1.31,82.22-6.39
		c7.95-1.48,15.84-3.26,23.15-6.95c2.57-1.3,2.79-2.47,0.06-3.89c-3.78-1.97-7.76-3.34-11.86-4.4c-21.09-5.49-42.69-7.08-64.34-8.35
		c-1.59-0.09-2.54,0.85-3.6,1.67c-6.9,5.33-13.98,10.41-21.12,15.42c-3.19,2.24-5.8,2.41-9.12,0.13
		c-7.29-5.01-14.63-9.93-21.58-15.4c-1.54-1.21-3.05-1.77-5.1-1.68c-15.82,0.76-31.57,2.14-47.17,4.86
		c-9.06,1.58-18.14,3.27-26.5,7.4c-1.07,0.53-2.69,0.92-2.73,2.24c-0.04,1.35,1.59,1.73,2.65,2.26c7.21,3.56,14.99,5.27,22.82,6.73
		C91.29,372.2,118.78,373.33,146.33,373.49z"/>
	<path class="st2" d="M9.07,144.7c0.34-32.83,11.6-63.6,34.96-89.67c23.24-25.93,52.23-41.15,86.88-44.86
		c40.43-4.32,76.18,6.97,106.6,34.03c24.55,21.83,39.27,49.2,44.19,81.73c4.5,29.78-0.78,58.25-12.13,85.78
		c-11.42,27.71-28.19,52.03-47.87,74.47c-21.39,24.4-45.72,45.46-72.06,64.3c-2.54,1.82-4.3,1.84-6.9,0.06
		c-23.39-16.08-45.03-34.25-64.49-54.9c-20.36-21.59-37.92-45.24-50.71-72.18c-9.42-19.83-15.74-40.53-17.72-62.5
		C9.38,156.22,9.36,151.51,9.07,144.7z M146.31,28.08C83.42,27.29,29.02,78.41,29,144.87c-0.02,65.86,53.71,116.65,116.61,116.89
		c63.72,0.25,117.11-51.72,117.32-116.57C263.13,79.54,208.92,27.42,146.31,28.08z"/>
</g>
<path class="st1" d="M146.54,28.08c62.61-0.66,116.83,51.47,116.62,117.11c-0.2,64.86-53.59,116.82-117.32,116.57
	c-62.9-0.24-116.63-51.03-116.61-116.89C29.26,78.41,83.66,27.29,146.54,28.08z M38.33,144.89
	c0.11,59.66,48.43,107.88,108.04,107.82c59.54-0.06,107.93-48.6,107.79-108.13C254.02,85.17,205.7,37,146.25,36.99
	C86.63,36.97,38.21,85.37,38.33,144.89z"/>
<g>
	<path class="st1" d="M220.9,208.62c0,0.47,0,0.95,0,1.42c-0.82,1.09-1.95,1.3-3.24,1.3c-46.47-0.01-92.94-0.01-139.42,0
		c-1.29,0-2.43-0.2-3.24-1.3c0-0.57,0-1.14,0-1.71c0.62-0.46,1.04-1.31,1.97-1.21c1.55,0.16,1.79-0.68,1.63-1.93
		c-0.05-0.42-0.02-0.85,0.01-1.28c0.11-1.89,1.19-3.21,3.09-3.5c0.78-0.12,0.74-0.46,0.73-1.02c-0.04-2.24,0.54-4.31,1.86-6.14
		c0.29-0.4,0.41-0.81,0.41-1.31c-0.01-9.81-0.02-19.62,0.01-29.44c0-0.87-0.33-0.99-1.07-0.97c-1.52,0.05-3.04,0.02-4.56,0.01
		c-1.29-0.01-2.51-0.22-3.14-1.51c-0.66-1.35-0.07-2.46,0.78-3.51c3.39-4.15,6.78-8.3,10.15-12.46c1.22-1.5,2.8-2.21,4.71-2.25
		c0.85-0.01,1.72-0.07,2.56,0.01c0.94,0.09,1.17-0.25,1.17-1.17c-0.04-5.69-0.02-11.38-0.03-17.06c0-1.37,0.46-3.16-0.23-3.99
		c-0.72-0.88-2.58-0.24-3.94-0.26c-1.4-0.02-2.68-0.17-3.34-1.63c-0.63-1.39,0.07-2.45,0.91-3.48c3.27-4,6.55-7.99,9.78-12.03
		c1.41-1.76,3.13-2.61,5.41-2.59c1.42,0.01,3.39,0.72,4.14-0.34c0.7-0.99,0.16-2.83,0.19-4.3c0.01-0.6-0.13-0.9-0.8-1.07
		c-1.59-0.42-2.49-1.55-2.55-3.19c-0.08-1.94-0.11-3.89-0.04-5.82c0.08-2.13,1.48-3.53,3.66-3.55c7.5-0.05,15.01-0.05,22.51,0
		c2.24,0.01,3.62,1.43,3.71,3.65c0.07,1.75,0.04,3.51,0.01,5.26c-0.03,1.4-0.42,2.86-1.81,3.27c-1.77,0.52-1.68,1.66-1.61,2.98
		c0.04,0.66,0.06,1.33-0.01,1.99c-0.1,0.92,0.21,1.19,1.16,1.18c9.93-0.04,19.85-0.03,29.78,0c0.74,0,1.22-0.24,1.7-0.76
		c2.69-2.94,5.4-5.86,8.11-8.78c2.01-2.17,3.97-2.2,5.96-0.06c13.42,14.47,26.83,28.95,40.24,43.42c0.87,0.94,1.56,1.94,1.01,3.31
		c-0.58,1.43-1.81,1.69-3.15,1.7c-2.37,0.02-4.75,0.06-7.12-0.02c-1.04-0.04-1.23,0.32-1.22,1.27c0.04,6.11,0.03,12.23,0.01,18.34
		c0,0.74,0.19,1.36,0.57,2c1.94,3.3,3.86,6.62,5.75,9.95c0.92,1.61,0.9,2.65-0.25,3.88c-0.53,0.57-0.26,0.89,0,1.33
		c1.06,1.84,2.16,3.67,3.19,5.53c0.83,1.49,0.77,2.83-0.35,3.74c-0.74,0.6-0.55,0.98-0.18,1.61c1.5,2.54,2.96,5.11,4.43,7.67
		c0,0.57,0,1.14,0,1.71c-0.9,1.48-2.23,2.02-3.93,1.95c-1.8-0.07-3.6,0.02-5.4-0.03c-0.78-0.02-1.06,0.18-1.04,1.01
		c0.05,2.51,0.06,5.01,0,7.52c-0.02,0.92,0.3,1.1,1.14,1.08c2.08-0.05,4.17,0.03,6.25-0.03
		C219.27,206.99,220.27,207.41,220.9,208.62z M146.58,171.8c0,11.28,0.02,22.56-0.02,33.84c0,1.11,0.28,1.44,1.42,1.43
		c3.99-0.06,7.98-0.07,11.96,0.03c1.38,0.04,1.82-0.25,1.8-1.74c-0.08-10.66-0.05-21.33-0.04-31.99c0-2.67,1.41-4.24,3.88-4.25
		c6.32-0.03,12.63-0.03,18.95,0c2.25,0.01,3.77,1.49,3.82,3.73c0.06,2.75,0.04,5.5,0.01,8.25c-0.02,1.68-0.89,2.64-2.33,2.66
		c-1.2,0.02-2-0.96-2.02-2.58c-0.03-2.23-0.04-4.46,0.01-6.68c0.02-0.8-0.22-1.05-1.04-1.05c-5.27,0.04-10.54,0.05-15.81,0.03
		c-0.8,0-1.06,0.21-1.06,1.03c0.02,10.43,0.02,20.85,0,31.28c0,0.75,0.14,1.08,1,1.08c5.27-0.03,10.54-0.01,15.81,0.04
		c0.91,0.01,1.12-0.31,1.1-1.15c-0.05-2.13-0.02-4.27-0.02-6.4c0-2.56-0.04-5.12,0.03-7.68c0.05-1.78,1.29-2.64,2.86-2.09
		c1.25,0.44,1.48,1.48,1.48,2.63c0,4.5,0.03,9.01-0.02,13.51c-0.01,1,0.16,1.41,1.29,1.38c3.04-0.09,6.08-0.06,9.12-0.01
		c0.96,0.02,1.34-0.21,1.31-1.25c-0.07-2.42-0.07-4.84,0-7.25c0.03-1-0.36-1.18-1.24-1.15c-1.76,0.06-3.51,0.02-5.27,0.02
		c-3.63-0.01-4.84-2.04-3.05-5.15c1.2-2.09,2.43-4.17,3.62-6.27c0.2-0.35,0.66-0.64,0.12-1.2c-1.6-1.67-1.64-2.37-0.51-4.37
		c0.98-1.73,1.97-3.45,2.98-5.17c0.3-0.51,0.54-0.88-0.07-1.44c-0.98-0.91-1.09-2.13-0.44-3.26c2.2-3.87,4.42-7.72,6.73-11.52
		c0.39-0.65,0.59-1.23,0.59-1.96c-0.01-6.3-0.03-12.61,0.01-18.91c0.01-0.93-0.28-1.59-0.9-2.26c-3.44-3.66-6.84-7.37-10.27-11.05
		c-0.84-0.9-1.37-1.87-0.58-3.03c0.31-0.46,0.2-0.73-0.13-1.08c-0.97-1.03-1.92-2.09-2.89-3.13c-0.25-0.27-0.51-0.58-0.96-0.32
		c-1.42,0.8-2.39,0.09-3.33-0.93c-2.82-3.07-5.7-6.1-8.5-9.19c-0.7-0.77-1.05-0.88-1.82-0.04c-8.87,9.63-17.77,19.23-26.69,28.81
		c-0.63,0.67-0.89,1.34-0.89,2.27C146.59,149.43,146.58,160.62,146.58,171.8z M88.98,189.47c0.57-0.16,1.03-0.42,1.48-0.39
		c1.47,0.09,1.51-0.76,1.5-1.87c-0.04-4.69-0.03-9.39-0.01-14.08c0.01-2.81,1.38-4.16,4.2-4.19c2.23-0.02,4.46-0.02,6.7,0
		c2.95,0.02,4.33,1.41,4.33,4.37c0.01,4.5-0.01,9.01,0.02,13.51c0,0.31-0.35,0.99,0.44,0.9c0.51-0.05,1.22-0.03,1.1-0.92
		c-0.04-0.28,0-0.57,0-0.85c0-4.31-0.02-8.63,0.01-12.94c0.02-2.62,1.43-4.02,4.06-4.06c2.33-0.04,4.65-0.03,6.98,0
		c2.77,0.03,4.19,1.46,4.19,4.23c0.01,6.54,0,13.08,0.01,19.62c0,0.77-0.07,1.52-0.38,2.22c-0.49,1.09-0.63,3.12-0.39,4.31
		c0.15,0.76,0.47,1.2,1.23,1.52c0.95,0.4,1.57,1.25,1.73,2.29c0.13,0.88,0.18,1.8,0.11,2.69c-0.08,1.01,0.28,1.26,1.27,1.25
		c4.46-0.05,8.93-0.07,13.39,0.01c1.15,0.02,1.39-0.34,1.39-1.43c-0.03-14.22-0.04-28.44,0.01-42.66c0-1.22-0.34-1.47-1.5-1.46
		c-5.51,0.06-11.02,0.03-16.53,0.03c-0.96,0-2.19,0.07-2.5-0.93c-0.48-1.59-1.58-1.28-2.67-1.29c-1-0.01-1.99-0.01-2.99,0
		c-0.37,0-0.8-0.06-0.91,0.45c-0.36,1.65-1.62,1.76-2.97,1.76c-7.27,0.01-14.53,0.06-21.8-0.01c-1.31-0.01-1.53,0.39-1.52,1.58
		c0.06,7.58,0.03,15.17,0.03,22.75C88.98,187.04,88.98,188.22,88.98,189.47z M144.96,119.34c-0.82,0-1.28,0-1.74,0
		c-10.16,0-20.32,0-30.48,0c-3.99,0-7.98,0.01-11.97,0.03c-0.39,0-0.87-0.21-1.14,0.3c-0.59,1.13,0.12,2.32,1.4,2.32
		c7.6,0.01,15.19,0.01,22.79,0.03c2.99,0.01,4.32,1.35,4.33,4.34c0.01,2.51,0.01,5.02,0,7.54c-0.01,3.36-1.26,4.6-4.65,4.6
		c-7.5,0.01-15.01,0.07-22.51-0.02c-1.48-0.02-1.43,0.65-1.43,1.69c0,1.04-0.03,1.69,1.44,1.68c10.73-0.07,21.46-0.03,32.19-0.02
		c2.66,0,5.32,0.01,7.98-0.01c0.37,0,1,0.27,1.07-0.34c0.1-0.89,0.23-1.87-0.07-2.67c-0.24-0.64-1.2-0.25-1.82-0.26
		c-2.42-0.07-4.85,0.06-7.26-0.14c-2.34-0.19-3.19-2.38-1.78-4.27c0.28-0.38,0.62-0.72,0.94-1.06
		C136.41,128.58,140.56,124.1,144.96,119.34z M119.85,94.21c0,0.01,0,0.02,0,0.03c-2.04,0-4.07,0.03-6.11-0.01
		c-0.79-0.02-1.2,0.11-1.18,1.06c0.06,2.55,0.05,5.11,0.01,7.66c-0.01,0.78,0.21,1.07,1.03,1.06c4.12-0.02,8.24-0.01,12.36,0.03
		c0.71,0.01,1.01-0.18,1-0.95c-0.04-2.65-0.04-5.29,0-7.94c0.01-0.77-0.28-0.97-1-0.95C123.92,94.23,121.88,94.21,119.85,94.21z
		 M107.06,134.13c0,0.01,0,0.02,0,0.03c2.09,0,4.17-0.02,6.26,0.01c0.7,0.01,1.01-0.14,0.99-0.93c-0.06-1.99-0.06-3.97,0-5.96
		c0.02-0.79-0.28-0.94-0.98-0.93c-4.27,0.03-8.53,0.04-12.8,0.03c-0.69,0-0.89,0.23-0.88,0.9c0.04,1.89,0.06,3.79-0.01,5.68
		c-0.03,0.91,0.2,1.23,1.16,1.2C102.89,134.08,104.98,134.13,107.06,134.13z M119.63,183.11c0-2.94-0.02-5.88,0.01-8.82
		c0.01-0.7-0.14-1.04-0.93-1.02c-1.57,0.05-3.13,0.05-4.7,0c-0.8-0.03-0.93,0.32-0.93,1.01c0.02,4.27,0.03,8.53,0,12.8
		c0,0.67,0.23,1.03,0.84,1.28c1.8,0.75,3.19,2,4.27,3.62c0.26,0.39,0.47,0.91,1.07,0.72c0.67-0.2,0.35-0.8,0.36-1.22
		C119.65,188.7,119.63,185.9,119.63,183.11z M102.84,182.03c0-2.55-0.03-5.11,0.02-7.66c0.01-0.8-0.22-1.09-1.04-1.05
		c-1.32,0.06-2.66,0.09-3.98-0.01c-1.15-0.09-1.54,0.23-1.52,1.45c0.08,4.11,0.09,8.23,0,12.35c-0.03,1.58,0.09,2.87,1.89,3.36
		c0.29,0.08,0.53,0.38,0.78,0.6c0.65,0.58,1.48,1.34,2.23,0.82c0.85-0.6,1.72-1.4,1.66-2.76
		C102.76,186.76,102.84,184.39,102.84,182.03z M212.02,180.97c-1.14-1.98-2.2-3.81-3.24-5.65c-0.26-0.47-0.67-0.44-1.1-0.43
		c-1.61,0.01-3.22,0.02-4.84,0.03c-0.37,0-0.76-0.06-1,0.36c-1.07,1.85-2.15,3.7-3.31,5.7c2.44,0,4.62,0,6.8,0
		C207.5,180.97,209.67,180.97,212.02,180.97z M123.83,130.29c0-0.9-0.08-1.8,0.02-2.69c0.12-1.09-0.29-1.42-1.33-1.3
		c-1.26,0.14-2.95-0.53-3.67,0.28c-0.62,0.69-0.2,2.34-0.18,3.56c0.03,1.31-0.57,3.07,0.23,3.8c0.87,0.8,2.62,0.15,3.98,0.25
		c0.73,0.06,1.02-0.17,0.97-0.94C123.78,132.28,123.83,131.29,123.83,130.29z M94.83,193.82c-3.69-1.67-7.88,0.95-8.04,5.25
		c-0.03,0.74,0.16,1.27,1.12,1.2c1.13-0.08,2.28-0.04,3.42-0.01c0.52,0.01,0.79-0.14,0.82-0.69
		C92.27,197.31,93.13,195.37,94.83,193.82z"/>
	<path class="st1" d="M175.02,161.24c-4.13,0-8.26,0.01-12.39,0c-2.96-0.01-4.34-1.4-4.36-4.34c-0.01-0.95-0.04-1.9,0.01-2.84
		c0.11-2.18,1.52-3.65,3.7-3.68c0.97-0.01,1.15-0.32,1.15-1.21c-0.04-5.12-0.02-10.23-0.02-15.35c0-2.97,1.37-4.38,4.31-4.39
		c5.08-0.02,10.16-0.02,15.24,0c2.88,0.01,4.26,1.41,4.27,4.27c0.01,5.12,0.02,10.23-0.01,15.35c-0.01,0.89,0.08,1.32,1.18,1.32
		c2.18,0.01,3.59,1.51,3.68,3.7c0.04,0.99,0.02,1.99,0.01,2.98c-0.02,2.76-1.43,4.16-4.23,4.17
		C183.38,161.26,179.2,161.24,175.02,161.24z M167.47,142.06c0,2.32,0.03,4.65-0.02,6.97c-0.02,0.85,0.11,1.25,1.13,1.24
		c4.32-0.06,8.64-0.03,12.96,0.01c0.77,0.01,1.08-0.15,1.07-1c-0.04-4.83-0.03-9.67-0.01-14.5c0-0.72-0.19-1-0.96-1
		c-4.42,0.04-8.83,0.05-13.25,0.04c-0.77,0-0.97,0.28-0.96,1C167.5,137.23,167.47,139.65,167.47,142.06z"/>
	<path class="st1" d="M171.94,191.72c-0.09,1.05,0.1,2.04-0.21,3.02c-0.33,1.03-1.06,1.63-2.06,1.64c-1.04,0.01-1.95-0.5-2.18-1.64
		c-0.39-1.95-0.41-3.93,0.01-5.87c0.24-1.1,1.07-1.67,2.17-1.65c1.11,0.02,1.78,0.69,2.1,1.77
		C172.04,189.92,171.83,190.86,171.94,191.72z"/>
	<path class="st1" d="M140.69,183.04c0,3.27,0.02,6.54,0,9.8c-0.02,2.88-1.39,4.24-4.28,4.26c-2.28,0.02-4.56,0.03-6.83,0
		c-2.68-0.04-4.1-1.48-4.11-4.15c-0.01-6.63-0.01-13.26,0-19.89c0-2.61,1.42-4.07,4-4.11c2.42-0.04,4.84-0.04,7.26,0
		c2.54,0.05,3.92,1.44,3.95,4.01C140.72,176.31,140.69,179.68,140.69,183.04z M129.81,182.88c0,2.94,0.03,5.88-0.02,8.81
		c-0.01,0.81,0.25,1.07,1.05,1.04c1.52-0.05,3.04-0.04,4.56-0.01c0.67,0.01,0.91-0.21,0.91-0.89c-0.02-5.87-0.02-11.75,0-17.62
		c0-0.68-0.23-0.91-0.91-0.9c-1.47,0.03-2.95,0.06-4.41-0.01c-0.93-0.05-1.22,0.24-1.2,1.19
		C129.84,177.28,129.81,180.08,129.81,182.88z"/>
</g>
</svg>
